<?xml version="1.0" encoding="UTF-8"?>
<svg id="Layer_1" data-name="Layer 1" xmlns="http://www.w3.org/2000/svg" viewBox="0 0 601 400">
  <defs>
    <style>
      .cls-1 {
        fill: #f90;
        fill-rule: evenodd;
      }

      .cls-2 {
        fill: #252f3e;
      }
    </style>
  </defs>
  <g id="g1865">
    <path id="path1857" class="cls-2" d="M173.28,152.65c0,7.15.77,12.95,2.13,17.21,1.55,4.25,3.48,8.89,6.19,13.92.97,1.55,1.35,3.09,1.35,4.45,0,1.93-1.16,3.87-3.68,5.8l-12.19,8.12c-1.74,1.16-3.48,1.74-5.03,1.74-1.93,0-3.87-.97-5.8-2.71-2.71-2.9-5.03-5.99-6.96-9.09-1.93-3.29-3.87-6.96-6-11.41-15.09,17.79-34.04,26.68-56.87,26.68-16.25,0-29.21-4.64-38.69-13.92-9.48-9.28-14.31-21.66-14.31-37.12,0-16.44,5.8-29.78,17.6-39.83,11.8-10.05,27.47-15.08,47.39-15.08,6.58,0,13.35.58,20.5,1.55,7.16.97,14.51,2.51,22.24,4.25v-14.11c0-14.7-3.09-24.94-9.09-30.94-6.19-5.99-16.63-8.89-31.53-8.89-6.77,0-13.73.77-20.89,2.51s-14.12,3.87-20.89,6.57c-3.09,1.35-5.42,2.13-6.77,2.51-1.35.39-2.32.58-3.09.58-2.71,0-4.06-1.93-4.06-5.99v-9.47c0-3.09.39-5.41,1.36-6.77s2.72-2.71,5.43-4.06c6.79-3.48,14.94-6.38,24.45-8.7,9.51-2.51,19.6-3.67,30.27-3.67,23.09,0,39.97,5.22,50.83,15.66,10.67,10.44,16.1,26.3,16.1,47.57v62.65h0ZM95.3,181.7c6.38,0,12.95-1.16,19.92-3.48,6.96-2.32,13.15-6.57,18.37-12.37,3.09-3.67,5.41-7.73,6.57-12.37s1.93-10.25,1.93-16.82v-8.12c-5.61-1.35-11.6-2.51-17.79-3.29s-12.18-1.16-18.18-1.16c-12.95,0-22.43,2.51-28.81,7.73-6.38,5.22-9.47,12.57-9.47,22.24,0,9.09,2.32,15.86,7.15,20.5,4.64,4.83,11.41,7.15,20.3,7.15h0ZM250.42,203.1c-3.48,0-5.8-.58-7.35-1.93-1.55-1.16-2.9-3.87-4.06-7.54l-45.45-149.5c-1.16-3.87-1.74-6.38-1.74-7.74,0-3.09,1.55-4.84,4.64-4.84h19.05c3.67,0,6.18.58,7.53,1.93,1.55,1.16,2.7,3.86,3.86,7.53l32.46,127.89,30.14-127.89c.97-3.86,2.13-6.38,3.67-7.53,1.55-1.16,4.25-1.93,7.73-1.93h15.46c3.67,0,6.18.58,7.73,1.93,1.55,1.16,2.9,3.86,3.67,7.53l30.52,129.44,33.42-129.44c1.16-3.86,2.51-6.38,3.86-7.53,1.55-1.16,4.06-1.93,7.53-1.93h17.97c3.09,0,4.83,1.55,4.83,4.83,0,.97-.19,1.93-.39,3.09-.19,1.16-.58,2.7-1.35,4.83l-46.56,149.34c-1.16,3.86-2.51,6.38-4.06,7.53s-4.06,1.93-7.34,1.93h-16.59s-6.19-.91-7.73-2.26-2.9-3.87-3.67-7.73l-29.97-124.71-29.78,124.52c-.97,3.87-2.13,6.38-3.67,7.73-1.55,1.35-7.73,2.46-7.73,2.46h-16.62ZM499.24,207.55c-10.03,0-20.05-1.16-29.69-3.47-9.64-2.31-17.16-4.82-22.17-7.71-3.09-1.74-5.21-3.66-5.98-5.4-.77-1.74-1.16-3.66-1.16-5.4v-9.83c0-4.05,1.54-5.98,4.43-5.98,1.16,0,2.31.19,3.47.58,1.16.39,2.89,1.16,4.82,1.93,6.56,2.89,13.69,5.21,21.21,6.75,7.71,1.54,15.23,2.31,22.95,2.31,12.15,0,21.6-2.12,28.15-6.36,6.56-4.24,10.03-10.41,10.03-18.32,0-5.4-1.74-9.83-5.21-13.5-3.47-3.66-10.03-6.94-19.47-10.03l-27.96-8.68c-14.08-4.43-24.49-10.99-30.85-19.67-6.36-8.48-9.64-17.93-9.64-27.96,0-8.1,1.74-15.23,5.21-21.4,3.47-6.17,8.1-11.57,13.88-15.81,5.78-4.43,12.34-7.71,20.05-10.03,7.71-2.31,15.81-3.28,24.3-3.28,4.24,0,8.68.19,12.92.77,4.43.58,8.48,1.35,12.53,2.12,3.86.96,7.52,1.93,10.99,3.09,3.47,1.16,6.17,2.31,8.1,3.47,2.7,1.54,4.63,3.09,5.78,4.82,1.16,1.54,1.74,3.66,1.74,6.36v9.06c0,4.05-1.54,6.17-4.43,6.17-1.54,0-4.05-.77-7.33-2.31-10.99-5.01-23.33-7.52-37.02-7.52-10.99,0-19.67,1.74-25.64,5.4-5.98,3.66-9.06,9.26-9.06,17.16,0,5.4,1.93,10.03,5.78,13.69,3.86,3.66,10.99,7.33,21.21,10.6l27.38,8.68c13.88,4.43,23.91,10.6,29.89,18.51,5.98,7.91,8.87,16.97,8.87,26.99,0,8.29-1.74,15.81-5.01,22.37-3.47,6.56-8.1,12.34-14.08,16.97-5.98,4.82-13.11,8.29-21.4,10.8-8.68,2.7-17.74,4.05-27.57,4.05h0Z"/>
    <g id="g1863">
      <path id="path1859" class="cls-1" d="M535.42,301.77c-63.61,46.99-156.04,71.93-235.51,71.93-111.37,0-211.72-41.18-287.52-109.63-5.99-5.41-.58-12.76,6.57-8.51,81.98,47.57,183.11,76.38,287.71,76.38,70.57,0,148.11-14.7,219.46-44.86,10.63-4.83,19.72,6.96,9.28,14.7Z"/>
      <path id="path1861" class="cls-1" d="M561.91,271.61c-8.12-10.44-53.75-5.03-74.44-2.51-6.19.77-7.15-4.64-1.55-8.7,36.35-25.52,96.1-18.18,103.06-9.67,6.96,8.7-1.93,68.45-35.96,97.06-5.22,4.45-10.25,2.13-7.93-3.67,7.73-19.14,24.94-62.26,16.82-72.51Z"/>
    </g>
  </g>
</svg>