<?xml version="1.0" encoding="UTF-8"?>
<svg id="Layer_1" data-name="Layer 1" xmlns="http://www.w3.org/2000/svg" viewBox="0 0 400 400">
  <defs>
    <style>
      .cls-1 {
        fill: #5466fb;
      }
    </style>
  </defs>
  <path class="cls-1" d="M285.59,289.84c-29,18.89-58.83,36.03-88.04,53.72-17.73,10.73-44.24,30.37-62.08,37.66-1.21.5-13.19,3.79-13.91,3.78-.52,0-.46-1.99-1.22-2.16-2.2-.5-3.72.85-5.11.93-.45.03-.32-1.52-1.24-1.85-14.33-5.19-22.49-12.88-25.23-28.61v-193.3c.87-10.79,5.23-19.14,13.63-25.85,19.75-15.78,33.08-4.43,51.13,5.83,34.13,19.4,68.98,41,102.44,61.7,15.54,9.61,50.73,26.9,54.64,45.09,4.97,23.16-8.42,32.26-25.01,43.07Z"/>
  <path class="cls-1" d="M88.81,95.64c2.65-18.45,26.34-36.06,44.66-27,26.13,14.44,51.62,30.02,77.21,45.37s64.73,35.72,87.28,54c10.94,8.86,15.84,21.92,12.45,35.99-.46,1.9-6.91,14.73-8.62,13.69-.09-.06.24-1.34-.77-2.06-6.12-4.35-12.84-7.61-19.16-11.55-46.92-29.25-94.64-58.35-142.63-86.23-4.32-.63-4.65-1.25-8.4-1.02-.54.03-.36-1.94-1.08-2.05-.76-.11-13.15.36-15.33.47-7.98.39-19.53,9.07-25.6,14.15,1.07-10.46-1.45-23.67,0-33.76Z"/>
  <path class="cls-1" d="M88.81,44.73c2.47-18.35,26.03-35.72,44.36-27.74,39.98,23.65,80.16,47.06,119.68,71.46,13.09,8.08,45,25.14,52.88,36.46,6.5,9.33,7.5,23.1,2.49,33.31-.48.98.28,1.72-1.68,1.22-16.44-11.56-33.81-21.73-50.97-32.17-29.61-18.02-60.54-36.24-91.15-54.04-19.49-11.33-29.73-23.82-56.1-16.25-7.11,2.04-13.6,7.97-19.51,12.17.73-7.66-1-16.99,0-24.41Z"/>
</svg>