<?xml version="1.0" encoding="UTF-8"?>
<svg id="Layer_1" data-name="Layer 1" xmlns="http://www.w3.org/2000/svg" viewBox="0 0 200.74 270">
  <defs>
    <style>
      .cls-1 {
        fill: #ec8ca0;
      }
    </style>
  </defs>
  <path class="cls-1" d="M181.02,196.03c9.2-18.51,14.35-39.2,14.35-61.03,0-29.38-9.32-56.68-25.29-79.39C153.22,31.65,128.94,12.81,100.37,2.07,44.73,22.98,5.37,74.62,5.37,135c0,29.18,9.2,56.32,24.98,78.94l-.02.04c.26.34.52.68.77,1.02,11.34,15.94,25.98,29.59,42.98,40.05,12.15,7.81,21.73,11.56,25.06,12.4.41.16.81.32,1.22.47,26.77-10.06,49.77-27.24,66.43-49.08,5.61-7.02,10.47-14.65,14.21-22.82ZM188.67,135c0,9.15-.96,18.18-2.82,26.99-5.78-26.2-32.58-50.27-65.36-62.75-32.35-12.32-67.37-14-64.08-34.27,4.47-27.57,23.1-45.45,41.73-49.92,7.01-1.68,15.05.45,23.18,4.53,4.92,2.93,9.67,6.13,14.21,9.63,11.25,8.67,21.03,18.85,29.07,30.28,15.75,22.38,24.07,48.5,24.07,75.53ZM14.42,110.35c10.27,17.54,43.87,29.72,77.75,41.79,33.38,12.32,68.55,17.18,68.55,38.75s-27.49,59.61-60.35,59.61c-16.04,0-37.5-14.76-53.38-26.44-3.39-3.73-6.58-7.64-9.56-11.73-16.59-22.78-25.35-49.52-25.35-77.32,0-8.34.79-16.58,2.35-24.65Z"/>
</svg>