<svg xmlns="http://www.w3.org/2000/svg" viewBox="0 0 1080 1080"><defs><style>.cls-1{fill:#e5e3e3;}.cls-10,.cls-11,.cls-12,.cls-13,.cls-14,.cls-15,.cls-16,.cls-17,.cls-18,.cls-19,.cls-2,.cls-20,.cls-21,.cls-22,.cls-23,.cls-24,.cls-25,.cls-26,.cls-27,.cls-28,.cls-29,.cls-3,.cls-30,.cls-31,.cls-32,.cls-33,.cls-34,.cls-35,.cls-36,.cls-37,.cls-38,.cls-39,.cls-4,.cls-40,.cls-41,.cls-42,.cls-5,.cls-6,.cls-7,.cls-8,.cls-9{fill:none;stroke:#fff;stroke-linecap:round;stroke-linejoin:round;}.cls-10,.cls-11,.cls-12,.cls-13,.cls-14,.cls-15,.cls-16,.cls-17,.cls-18,.cls-19,.cls-2,.cls-20,.cls-21,.cls-22,.cls-23,.cls-24,.cls-25,.cls-26,.cls-27,.cls-28,.cls-29,.cls-3,.cls-30,.cls-31,.cls-32,.cls-33,.cls-34,.cls-35,.cls-36,.cls-37,.cls-38,.cls-39,.cls-4,.cls-40,.cls-5,.cls-6,.cls-7,.cls-8,.cls-9{stroke-width:3px;}.cls-2{stroke-dasharray:11.89 5.94 9.9 7.92 13.87 3.96;}.cls-4{stroke-dasharray:9.93 7.95 13.91 3.97;}.cls-5{stroke-dasharray:11.92 5.96 9.93 7.95 13.91 3.97;}.cls-6{stroke-dasharray:9.99 7.99 13.98 3.99;}.cls-7{stroke-dasharray:11.98 5.99 9.99 7.99 13.98 3.99;}.cls-8{stroke-dasharray:12.08 6.04 10.07 8.06 14.1 4.03;}.cls-9{stroke-dasharray:11.91 5.96 9.93 7.94 13.9 3.97;}.cls-10{stroke-dasharray:9.78 7.83 13.7 3.91;}.cls-11{stroke-dasharray:11.74 5.87 9.78 7.83 13.7 3.91;}.cls-12{stroke-dasharray:9.71 7.77 13.59 3.88;}.cls-13{stroke-dasharray:11.65 5.82 9.71 7.77 13.59 3.88;}.cls-14{stroke-dasharray:9.57 7.66 13.4 3.83;}.cls-15{stroke-dasharray:11.48 5.74 9.57 7.66 13.4 3.83;}.cls-16{stroke-dasharray:9.61 7.69 13.46 3.85;}.cls-17{stroke-dasharray:11.54 5.77 9.61 7.69 13.46 3.85;}.cls-18{stroke-dasharray:9.02 7.22 12.63 3.61;}.cls-19{stroke-dasharray:10.83 5.41 9.02 7.22 12.63 3.61;}.cls-20{stroke-dasharray:9.89 7.91 13.85 3.96;}.cls-21{stroke-dasharray:11.87 5.93 9.89 7.91 13.85 3.96;}.cls-22{stroke-dasharray:10.24 8.19 14.34 4.1;}.cls-23{stroke-dasharray:12.29 6.15 10.24 8.19 14.34 4.1;}.cls-24{stroke-dasharray:9.73 7.78 13.62 3.89;}.cls-25{stroke-dasharray:11.67 5.84 9.73 7.78 13.62 3.89;}.cls-26{stroke-dasharray:10.13 8.1 14.18 4.05;}.cls-27{stroke-dasharray:12.15 6.08 10.13 8.1 14.18 4.05;}.cls-28{stroke-dasharray:9.11 7.29 12.75 3.64;}.cls-29{stroke-dasharray:10.93 5.47 9.11 7.29 12.75 3.64;}.cls-30{stroke-dasharray:10.62 8.49 14.86 4.25;}.cls-31{stroke-dasharray:12.74 6.37 10.62 8.49 14.86 4.25;}.cls-32{stroke-dasharray:9.35 7.48 13.09 3.74;}.cls-33{stroke-dasharray:11.22 5.61 9.35 7.48 13.09 3.74;}.cls-34{stroke-dasharray:9.61 7.69 13.46 3.85;}.cls-35{stroke-dasharray:11.54 5.77 9.61 7.69 13.46 3.85;}.cls-36{stroke-dasharray:12.66 6.33 10.55 8.44 14.76 4.22;}.cls-37{stroke-dasharray:10.58 8.47 14.82 4.23;}.cls-38{stroke-dasharray:12.7 6.35 10.58 8.47 14.82 4.23;}.cls-39{stroke-dasharray:9.93 7.94 13.9 3.97;}.cls-40{stroke-dasharray:11.91 5.96 9.93 7.94 13.9 3.97;}.cls-41{stroke-width:4px;}.cls-42{stroke-width:2px;}.cls-43{fill:#201f71;}.cls-44{fill:#e62634;}</style></defs><title>logo geo</title><g id="Layer_2" data-name="Layer 2"><rect class="cls-1" x="-436.25" y="-14" width="1952.5" height="1108.01"/><path class="cls-2" d="M-342,31.42q8,8.76,15.84,17.65c13.8,15.57,32.12,25.14,50.39,34.52,5.09,2.61,10.18,5.25,15.15,8.1,10.84,6.2,17.68,15.67,23.47,26.65,8.29,15.71,8.65,32.31,7.75,49.13-.64,12-2.53,23.94-3.92,35.89-.76,6.47,1.17,12.44,3.62,18.17,3.07,7.2,6.44,14.31,10.14,21.21,1.79,3.34,4.51,6.21,7,9.13,4.64,5.46,9.69,10.59,14.06,16.25,5.46,7.08,7.15,15.87,9.62,24.22,4.09,13.82,8.29,27.54,17.74,38.91,6.37,7.68,13.28,14.54,23.76,16.17,3.37.52,6.72,1.25,10.11,1.47,12,.79,23.92,1.54,35.89,2,11.31.46,18.52,4.57,20.83,15.18a110,110,0,0,1,2.24,32.4c-.78,9.91-5.9,18.54-6.35,28.28-.26,5.72-1,11.67.15,17.14,3.09,14.21,2.21,28.13-1.26,42a132.87,132.87,0,0,0-3.92,39.94c.25,4.41,1.54,8.75,1.9,13.15.85,10.28-1.91,18.59-11.54,23.81-8.63,4.67-17.76,8.83-23.27,17.64-1.76,2.82-3.91,5.54-5,8.62-4.11,11.88-7.65,24-11.8,35.83A14.6,14.6,0,0,0-135.66,641c10.54,10.2,21.5,20,32.86,29.29,4.19,3.42,9.84,5.22,15,7.18,11.37,4.26,22.75,8.63,34.38,12.07,12.38,3.65,24.83,4.17,36.37-3.4A36.47,36.47,0,0,0-3.44,670.37c4.33-9.64,8.16-19.51,12.21-29.28,1.33-3.21,2.39-6.57,4.1-9.57,4.42-7.78,13.47-11.52,22.68-9.63C46,624,56.39,626.58,66.91,628.37c11,1.88,16.17,1,21.67-9.54,2-3.74,3.5-7.7,5.09-11.61,5.24-13,14.54-21.61,27.83-25.72,10.07-3.12,16.59-10,21.74-18.74,5.61-9.5,12.28-18.49,16.95-28.42,6.24-13.24,6.22-27.12-3-39.16-3.9-5.06-10-8.67-15.51-12.2-9-5.71-16.91-12.18-22.78-21.27a61.64,61.64,0,0,0-20-19.88c-5.43-3.27-11.2-6.83-15-11.67-10.4-13.08-13.53-28.1-8.25-44.31,3.6-11.05,4.73-22.29,4.75-33.88,0-5.56,1.85-11.36,4-16.62,2.66-6.63,9.09-8.37,15.52-8.54a183.14,183.14,0,0,1,19.71.94c6.75.57,11.8-2.77,14.55-11.2,2-6.17,3.94-12.39,3.81-19.17A25.09,25.09,0,0,0,133,282.32c-8.19-10.75-12.29-23-14.52-36-2.81-16.47-11.6-29.07-24.77-38.93-4.28-3.2-9.24-3.51-14.15-2.91-3.51.43-5.77,3-7.13,6.44-4.94,12.51-10.08,24.95-15.12,37.42a43.9,43.9,0,0,0-2.72,25.31,52,52,0,0,1,0,17.12c-.91,6.1-4.36,11-10.94,12.67-14.15,3.69-28.24,7.66-42.48,11-6.93,1.63-14.15,3.09-21.2,2.91-10-.27-19.9-2.06-29.82-3.35A47.56,47.56,0,0,1-59.95,312C-68.12,309-72,301.63-76.07,294.81-87.84,275-90.18,253.13-88.69,230.67c.34-5.1,1.76-10.16,3-15.16,2.36-9.73,6.9-12.83,16.62-14.34,8.55-1.34,17.72-2.66,25.11-6.73A201.58,201.58,0,0,1-1.36,177c11-3.1,20.2-9.63,29.27-16.19,6.14-4.45,7.76-11.69,8.49-18.64s.05-14.14.21-21.21c.1-4.22.13-8.55,1.17-12.59A8.87,8.87,0,0,1,42.69,103c12-3.88,24.1-7.68,36.38-10.6,6-1.42,12.42-.88,18.66-1.19,19-1,34.77-7.34,45.62-24.18,8-12.32,15.87-24.65,18.84-39.06,1.7-8.26,1.92-16.82,2.36-25.34"/><path class="cls-3" d="M164.66.61c.06-1.16.14-2.32.22-3.48.05-.63-.94-1.34-1.44-2"/><path class="cls-3" d="M734.6,1084.88c.57-1.92,1.15-3.83,1.72-5.75"/><path class="cls-4" d="M738.05,1073.43c2.1-7,4.19-13.91,6.1-20.91a28.36,28.36,0,0,0,1-11.86"/><path class="cls-5" d="M744.75,1038.72c-1.39-5.2-5-9.34-10.69-12.92a183.54,183.54,0,0,0-19.73-11.07c-9.63-4.5-17.21-11.3-22-20.42-6.13-11.63-15.3-19.43-26.42-25.75-11.3-6.42-22.44-13.09-35.43-15.58-4.35-.83-8.74-1.52-13.14-2-9.21-1-16.7-5.7-23.17-11.74-11.5-10.73-25.43-14.71-40.51-16.09-7.42-.68-14.87-2.17-22.24-1.85-14.9.65-29.3,3.45-39.93,15.49-2.37,2.69-4.59,5.53-7.1,8.07-10.6,10.71-18.53,9.29-28.68,3.85-13-7-15.7-16.77-7.15-30.09,4.32-6.72,9.44-12.94,13.51-19.8,4.26-7.19,5.33-15.49,6.14-23.69,1.61-16.24,2.75-32.61,11.68-47,6.94-11.2,14.43-22.08,21.1-33.44,4.71-8,8.67-16.54,8.69-26.22,0-11.27-5.7-16.82-13.64-19.73-16.73-6.14-42.08-1.72-53.75,14-9.29,12.57-20,24.11-30.21,36a51.78,51.78,0,0,1-7.55,6.59c-9.6,7.5-15,17.84-19.12,28.86-7.11,19-21.07,30.2-40,35.82-6.34,1.89-13,.77-18.6-1.68-16.86-7.35-31.34-1.78-45,7.4-13,8.73-25.41,18.34-38,27.71-9.91,7.38-20.71,13.1-32.89,15-16.58,2.57-31.28-1.51-42.46-15-4.18-5-5.07-11-5.52-17.2-.74-9.94-.5-20-2.26-29.78-2.21-12.19-9.19-22.26-16.84-32-7.84-10-14.72-20.72-21.8-31.28-2-2.91-3.18-6.32-4.59-9.57-3.78-8.66-11-12.26-19.71-14.23-8.08-1.82-15.08-5.77-17.06-14.6a29.27,29.27,0,0,1,0-12.08c2.51-12,6-23.86,8.34-35.93,2.38-12.52-2.25-22.86-12.56-30.24a293.74,293.74,0,0,0-25.29-16.63c-10-5.69-18.9,0-18.52,11.5.19,6.09,1.55,12.14,2.42,18.2.46,3.21,1.13,6.39,1.48,9.61.91,8.34-4.26,12.83-10.11,15.11-11.6,4.51-23.73,4.18-35.86,3.07-4.22-.39-8.42-1-12.64-1.49-13.31-1.38-26.7-2.17-39.89-4.27-7.11-1.14-14-4.22-20.74-6.92-18.1-7.18-33.95-18-48.63-30.68A42.85,42.85,0,0,0-143.42,667c-14.05-5.6-22-2.59-30.71,9.06a101.61,101.61,0,0,0-9.1,15.14,56.66,56.66,0,0,1-14.63,18.29c-10.43,8.71-18.57,19.58-26.5,30.62-4.31,6-9.22,12-17.58,12.7-2.86.25-5.73.5-8.59.5-12.23,0-21.37,4-26,16.64-4.2,11.59-10.52,22-21.51,29-12.37,7.88-24.33,16.41-36.45,24.69a49.18,49.18,0,0,0-21.2,31.84c-1.8,8.83-6.15,16.22-12.17,22.73-7.55,8.16-13.81,17.14-15.53,28.34-.89,5.78-.54,11.77-.61,17.67-.09,6.74.63,13.56-.21,20.19-.82,6.44-10.42,13.32-18,14.16-3.87.43-7.75.91-11.63,1-5.19.09-9.16-3.28-10.66-8-.66-2.09-1.4-4.15-2.17-6.2"/><path class="cls-3" d="M490.47-5.39,492.68.19"/><path class="cls-6" d="M494.88,5.76c2.2,5.57,4.41,11.13,6.76,16.63s6.35,8.79,12,9.18"/><path class="cls-7" d="M515.65,31.6l1.1-.08c14-1.38,27.12,2.43,39.93,7.58a366.64,366.64,0,0,0,57.61,17.72C622.61,58.67,628.46,63.55,631,72c3.7,12.3,6.8,24.82,11.28,36.84,5,13.53,7.76,27.54,11.1,41.47,2.14,8.94,5.77,17.5,8.41,26.33,2.89,9.71,1.93,19.44-1.56,28.77a27.54,27.54,0,0,1-18.07,17.32,177.09,177.09,0,0,0-20.72,8.56c-6.6,3.14-11.63,8-10.51,16.08a20.81,20.81,0,0,0,4,9.05c5.62,7.59,14.73,10.52,22.13,15.76,5.8,4.11,11.63,8.21,17.16,12.66,6.86,5.52,13.76,11.41,22.33,13.4,14.05,3.26,23.59,11.59,30.82,23.43,1.82,3,4.33,5.58,6,8.65,5.55,10.39,15.49,13.49,25.86,15.52,5.1,1,10.43.75,15.65,1.13a44.47,44.47,0,0,0,23.28-4.5,72.35,72.35,0,0,1,9.58-3.57c7.35-2.39,11.55-1.34,14,8.1a37.51,37.51,0,0,1,1,12.09c-1,14.15,4.37,26.45,10.79,38.38a75.26,75.26,0,0,1,8.59,27.83c1.09,9.8,2.23,19.59,10.46,26.89,5.93,5.27,13.15,6.54,20.31,7.92,17.72,3.41,35.69,2,53.57,2,12,0,19.37-5.54,23.81-16.59,1.82-4.52,4.3-8.79,6.52-13.16,3-5.93,3.55-11.88,1.05-18.22a96.33,96.33,0,0,1-6.49-29.81c-.8-13.89,4.21-24.92,16.43-33,11.39-7.55,23.21-13.84,36.54-16.36,18.74-3.53,30.53-14.92,39.54-30.89,7.57-13.44,11.74-28,15.86-42.59,4.18-14.76,10.49-28.64,15.63-43,4.21-11.73,11.81-16,23.47-15.08,7.75.64,15.49,1.37,23.25,2,15.36,1.27,22.79,10.6,26.41,24.74,2.89,11.29,7.13,22.22,10.43,33.41,3,10,11.36,12.89,19.75,16.21,15.45,6.12,30.36,13.45,39.8,27.85,5.85,8.91,10.25,18.77,15.32,28.2,5.3,9.87,13.2,15.64,24.76,15.14a103.64,103.64,0,0,0,49.51-14.67c6.64-4,12.65-9.52,20.76-9.94a108.21,108.21,0,0,1,19.19,1c12,1.56,23.92,3.73,35.9,5.43,6.54.92,13.16,2.12,19.7,1.86,6.77-.27,13.49-2.13,20.22-3.35,2.21-.4,4.36-1.18,6.58-1.47a28.76,28.76,0,0,0,19.21-10.64c8.91-10.8,18.14-21.35,26.65-32.46,3.51-4.59,5.82-10.21,8.16-15.59,4.35-10,4.22-20.43-1.13-29.69-7.73-13.38-16.5-26.16-25.15-39-6.14-9.1-10.84-18.72-9.36-29.83,1.07-8.05,3.87-15.86,5.87-23.78,2-8.09,4.87-16.08,5.8-24.3.7-6.07-.53-12.55-1.87-18.64-2.3-10.5.84-20.33,2.65-30.35,1.16-6.41,3.17-12.79,3.3-19.22.11-5.87-1.47-11.86-2.86-17.67-2.9-12.11-6-24.17-9.09-36.23"/><path class="cls-8" d="M1188.59,1037.66c-.69-2.63-1.38-5.26-2-7.89a30.67,30.67,0,0,1-.54-8.57,164,164,0,0,0-3.23-41.92c-2.28-10.39-.4-19.08,6.71-26.84,9.89-10.79,16.3-23.76,22.07-37a25.14,25.14,0,0,0,1.91-14c-1.31-6.73-6.86-10.64-13.36-12.68-10.42-3.27-20.95-6.24-31.32-9.67a92.57,92.57,0,0,1-30.26-16.22,29.18,29.18,0,0,1-6.58-8.53c-7.74-14.24-13.7-29.25-19.37-44.41-4.38-11.71-13.83-17.77-25.69-20.22-9.47-2-18.88.59-28.31.8-14.59.32-29.17,3-43.6-4.09-16.29-8-23.23-1.73-30.54,9.93-2.35,3.75-3.45,8.57-4.07,13.06-1.16,8.36-2.34,17.1,4,24.2,7.34,8.25,16.95,12.4,27.76,13.65,11.75,1.35,21.35-4.2,30.84-10,11-6.8,22.74-9.84,35.91-7.25,8.45,1.66,16.08,10.2,17,19.37a73.68,73.68,0,0,0,6.61,23.28c3.54,7.76,6.74,15.7,9.62,23.74,6,16.79,15.35,31,30.89,40.42a9.69,9.69,0,0,1,1.51,1c9.61,8.67,12.45,15.71-1,23.82-5.15,3.11-9.79,7-14.71,10.54a19.89,19.89,0,0,1-19.71,2.54c-3.68-1.41-7.35-2.9-11.13-4-8.92-2.62-18-2.93-27.29-2.24-18.35,1.36-36.48-.4-54.09-6.35-10.62-3.58-21.23-3.57-30.73,3.11a36.86,36.86,0,0,0-9.58,10.06c-8.71,13.63-16.62,27.78-25.5,41.3-6.49,9.89-5,18.41,2.13,26.87a26.79,26.79,0,0,1,6.49,20.21c-.39,4.62-1.07,9.21-1.76,13.81"/><path class="cls-3" d="M957.37,1079.45c-.3,2-.6,4-.87,5.94"/><path class="cls-9" d="M-71.78,1048.15c-2.48-4.86-4.78-9.81-6.84-14.85-5.16-12.62-1.09-22,7.94-28.9,5.86-4.44,10.94-9.93,16.25-15.06,10.44-10.11,18.1-9.54,30.32-2.48,3.35,1.94,6.42,4.35,9.63,6.53,7.2,4.9,15,5.07,22.16.89,11.39-6.61,22.45-13.83,33.38-21.19a28.28,28.28,0,0,0,11.31-15c5.32-16,11.67-31.61,16.87-47.62a23.06,23.06,0,0,0-1.83-18.65c-3.41-6-6.89-12-10.09-18.21-4.34-8.38-6.38-17.51-7.53-26.78-1-8.08-3.3-15.56-8.73-21.67-5.14-5.79-10.31-11.67-16.21-16.62-10.48-8.8-22.22-8.73-34.29-3.16-8.22,3.79-16.41,7.66-24.79,11.07s-17.26,3.14-25.7.91c-10.92-2.88-21.29-3.22-31.93,1.08-9.42,3.82-19.21,6.72-28.76,10.24-10.74,4-13.65,13-14.69,23.21-.35,3.39-.85,6.77-1.52,10.11-1.93,9.62-9.7,12-17.68,13.6-17.28,3.51-30.73,11.88-36.26,29.41-4.23,13.4-2.95,26.89,2.43,39.88,2.55,6.13,5.1,12.28,8.13,18.17,4.13,8,10.16,14.52,17.09,20.29s14,11.94,20.72,18.2c8.11,7.56,8.31,21.5,1.08,30.32-8,9.74-17.24,17.6-29.88,20.05-5.73,1.12-11.31-1.18-16.66-3.39-7.4-3.06-14.62-6.79-22.28-9-12.52-3.51-25.41-4.62-38.37-2.16-5.58,1.06-11.88,1.07-16.49,3.84-5.54,3.34-9.86,8.9-14.29,13.88-5.63,6.36-10.79,13.14-16.25,19.65-1.2,1.43-2.44,2.83-3.7,4.22"/><path class="cls-3" d="M932.74-4.88A55.72,55.72,0,0,0,936.27,0"/><path class="cls-10" d="M940.17,4.35c5.24,5.4,11.27,10,17.28,14.6A29.67,29.67,0,0,1,964,26.5c.11.17.21.34.3.5"/><path class="cls-11" d="M965.16,28.76c1.52,3.92.14,7.31-4.17,9.74-4.64,2.61-9.71,4.48-14.6,6.66-7.63,3.39-12.6,9-14.67,17.18C928.6,74.63,919.9,79.88,908,81.05q-14.91,1.47-29.82,3c-10.42,1.09-16.82,7-20.24,16.67-1.92,5.43-3.81,10.88-6.08,16.17-6.53,15.21-18.45,25.68-31.26,35.44-11.25,8.58-18.74,19.77-23.43,33.27-6.35,18.22-13.48,36.18-20.65,54.1-6,15-7.15,29.6,0,44.53,6.61,13.78,17.65,20.72,32.38,23.33,16.1,2.86,32.27,3.52,48.54,4.18,8.81.36,17.58,2.89,26.27,4.89,7.84,1.8,15.7,4,22.7-1.68a107.42,107.42,0,0,0,12.16-12.07c13.83-15.41,24.29-33,33.44-51.51,7.62-15.38,20.15-25.28,35.8-32,15.06-6.42,30-13.13,43.52-22.64,5.43-3.83,6.77-6.46,5-12.64a132.71,132.71,0,0,0-15.6-34.9,84.49,84.49,0,0,1-10.18-23.22c-1.93-7-4.56-13.77-6.47-20.76-3.29-12.05-.1-18.21,10.08-23.69a80.34,80.34,0,0,1,11.62-5c10.37-3.59,16.69-10.36,19.31-21.25,3.58-14.94,8.12-29.65,11.93-44.53a74.48,74.48,0,0,0,1.53-8.28"/><path class="cls-3" d="M1058.79.56c.26-2,.51-4,.82-5.95"/><path class="cls-3" d="M35.55,1085.39c1.44-1.39,2.82-2.83,4.21-4.28"/><path class="cls-12" d="M43.82,1076.94a48,48,0,0,1,6.52-5.52,152.8,152.8,0,0,1,21.47-11.67"/><path class="cls-13" d="M73.57,1058.93c7.92-3.53,16.64-4,25.17-4.26,8.78-.25,17.36-.61,25.81-3.56,8.8-3.07,14-8.8,16.22-17.76,1.42-5.67,3.57-11.16,5.49-16.7,2.94-8.44,8.82-14.44,16.16-19.22,3.56-2.32,7-4.77,10.63-7,5-3.21,9-7.42,10.52-13.18,2.17-8,4.09-16.1,5.52-24.26.78-4.4-1-8.52-4.44-11.59-3-2.62-5.69-5.83-9.15-7.47-15.79-7.51-26.2-20.06-34.32-35-3.9-7.17-9.42-12.72-17.18-15.64-5.28-2-9.21-.5-11.58,4.53-4,8.53-7.18,17.51-11.8,25.68-7.39,13.07-7.72,25.79-.91,39,3.43,6.66,2,12.82-3,18.16-6.34,6.8-12.77,13.52-19.2,20.23a101,101,0,0,0-18.35,25.71c-7.8,15.93-21.25,26.6-36.24,35.44-3.64,2.14-7.46,4-11.1,6.1-6.53,3.82-9,10.19-7.09,18.18.07.29.14.57.2.86"/><path class="cls-3" d="M5.37,1079c.46,2,.92,3.89,1.37,5.84"/><path class="cls-3" d="M470.25,1085.39a22.37,22.37,0,0,1,1.87-5.69"/><path class="cls-14" d="M475.42,1075c3.29-3.35,7.81-5.3,13.05-6.17a178.15,178.15,0,0,1,17.78-1.58"/><path class="cls-15" d="M508.17,1067.15c1.85-.14,3.7-.3,5.54-.52,14.46-1.73,29.12-3,42.44-9.59,16-8,25.75-20.5,27.39-38.87,1.14-12.83,2.08-25.65,6.83-38,3.8-9.86-.5-18.57-6.91-26.21-7.51-9-17.11-13.42-28.78-14.86a159.77,159.77,0,0,0-27.81-.68c-7,.35-12.79,4.2-17.65,9-6.61,6.54-12.74,13.54-19.3,20.13-5.21,5.24-10.77,10.11-16.13,15.21-8.81,8.38-16.22,9.9-27.3,2.52-2-1.35-3.89-3.27-6.11-3.88a10.54,10.54,0,0,0-6.95.5c-2.67,1.33-2.52,4.29-1.58,6.91a65.61,65.61,0,0,0,2.53,6.06,34.91,34.91,0,0,1,3.62,15.68c-.12,9.53.17,19.09-2.67,28.29-4.66,15.1-13.85,26.31-28.2,33.51-4.76,2.38-9.87,4.35-14.34,7.32"/><path class="cls-3" d="M391.23,1080.8a26.71,26.71,0,0,0-4.38,4.08"/><path class="cls-3" d="M933.25,1085.39a40.09,40.09,0,0,0-.78-6"/><path class="cls-16" d="M930.82,1073.92c-2.91-7.38-8.28-13.24-15.74-17.89a61.53,61.53,0,0,0-7.45-4"/><path class="cls-17" d="M905.86,1051.31a57.62,57.62,0,0,0-18.6-4c-7.14-.39-14.69-1.67-21.11-4.62-8.32-3.82-14.18-11.22-17.21-20-4.59-13.29-11.57-25.38-17.65-37.94-4-8.22-6.85-17-9.6-25.75-1.08-3.42-.56-7.37-.64-11.08-.08-4-.11-8.09,0-12.13.18-6.53-2.16-11.87-6.53-16.74-6-6.67-11.76-13.58-17.19-20.71-5.91-7.75-9-8.36-17.27-3-13.57,8.72-27.56,16.8-40.81,26-7.46,5.17-13.72,11.85-16.9,21s-2.52,18.47-1.93,27.84c1,16.3,11.5,25.59,24.25,33.41,7.89,4.83,15.89,9.59,23.19,15.23,10.34,8,12,15,6.74,26.71a90,90,0,0,0-6,17.18c-1.06,4.89-1.66,9.87-2.23,14.86"/><path class="cls-3" d="M766.16,1079.43c-.23,2-.46,4-.73,6"/><path class="cls-3" d="M665.35-5.39c1,1.74,1.87,3.54,2.78,5.32"/><path class="cls-18" d="M670.77,4.66a29,29,0,0,0,1.75,2.52,95.53,95.53,0,0,1,13.45,24"/><path class="cls-19" d="M686.62,32.86c1.08,2.88,2.06,5.8,3,8.77,2.78,9.23,9.13,14.77,17.73,18.18,12,4.77,22.38,1.86,31.33-7.07C749.44,42,760.1,31.06,771,20.44c5.64-5.49,11.86-10.37,17.6-15.77C789.87,3.52,791,2.28,792.16,1"/><path class="cls-3" d="M793.35-.35c1.31-1.51,2.6-3,3.93-4.53"/><path class="cls-3" d="M1018.67,356q-3,.62-5.84,1.4"/><path class="cls-20" d="M1007.16,359.15a150.74,150.74,0,0,0-26.86,12.62c-1.09.63-2.23,1.3-3.35,2"/><path class="cls-21" d="M975.31,374.89a17.17,17.17,0,0,0-4.94,5c-4.66,8,.56,14.35,7.88,17.51,5.63,2.43,11.41,4.52,17.17,6.6,7.72,2.78,15.32,6.23,23.29,7.92,12.87,2.74,24.9.09,29.06-16,4-15.56-4.25-33.74-20.73-38.63"/><path class="cls-3" d="M1025.12,356.76a32.37,32.37,0,0,0-5.95-.75"/><path class="cls-3" d="M419.2,447a54.69,54.69,0,0,0-5.67,2"/><path class="cls-22" d="M408,451.65c-10.29,5.84-17.16,15-21,26.74"/><path class="cls-23" d="M386.41,480.35c-.15.52-.29,1-.43,1.56-3.07,11.66-.9,22.53,8.41,31.34,7.94,7.53,15.29,15.82,25.36,20.58,4.24,2,9.07,2.72,13.59,4.17,8.78,2.8,17.66,5.37,26.26,8.64,16,6.1,31.18,3.83,46-3.62a76.54,76.54,0,0,0,8.58-4.58c16-10.77,17.41-33,7.6-47.47-4.83-7.12-12-11.58-18.67-16.71-7.87-6.09-15.29-12.77-23.35-18.57A42.17,42.17,0,0,0,456.09,448q-14.16-.42-28.34-.79"/><path class="cls-3" d="M425.7,447.16l-6-.16"/><path class="cls-3" d="M991.37,550.11a19.72,19.72,0,0,0-5.6,2.1"/><path class="cls-24" d="M981.22,555.82a29.22,29.22,0,0,0-5.89,10.51,51.53,51.53,0,0,1-10.7,17.84"/><path class="cls-25" d="M963.31,585.59a92.54,92.54,0,0,1-9.92,8.9,297.15,297.15,0,0,1-48,31.35c-14.27,7.33-28.88,14-43.46,20.73-3.79,1.74-8,2.62-12.1,3.58-10.07,2.38-13.09,8.68-11.34,17.68,4.19,21.56,9.89,42.83,14.86,64.25,2.18,9.4,4,18.88,6.11,28.3,3.3,14.71,12.82,20.92,28.28,18.65a78.2,78.2,0,0,0,10.61-2.51,24.05,24.05,0,0,0,14.08-11.13c7.71-12.93,19.33-21.5,31.36-29.86,9.56-6.65,18.71-13.92,27.79-21.23a41.37,41.37,0,0,0,8.09-9.06c8.4-12.46,21.31-16.66,35-19.66,2.67-.59,5.39-1,8.08-1.53,10.12-2,15.25-9.83,20.19-17.71,6-9.64,10.82-19.84,12.14-31.32,2-17.66,1.17-34.71-12.14-48.49-8.94-9.25-17.89-18.52-27.36-27.22a34,34,0,0,0-15.76-8.63"/><path class="cls-3" d="M997.87,550.33a28.94,28.94,0,0,0-6-.22"/><path class="cls-3" d="M274.64,598.63c-2,.39-3.93.74-5.9,1.09"/><path class="cls-26" d="M262.75,600.78c-4.66.85-9.31,1.77-13.85,3.05a192,192,0,0,0-19.22,6.34"/><path class="cls-27" d="M227.81,610.93c-1.91.8-3.8,1.65-5.65,2.55a39.69,39.69,0,0,0-21.28,25.1c-2.07,7-4.65,14-5.36,21.24-.76,7.77,3,14.45,9.9,18.62,6.25,3.79,12.84,7,19.14,10.72a43.19,43.19,0,0,1,8.08,6.06c8,7.82,7.13,19.34-2.06,25.62a271.59,271.59,0,0,1-26.26,15.68c-8.91,4.73-17.11,10.25-23.12,18.36a32,32,0,0,0-6.42,24.74c3,22.13,16.22,37.88,30.72,52.93,5.2,5.4,12,6.15,19.12,2.69s14.24-7.19,21.77-9.46c8-2.4,16.42-3.47,24.72-4.69,10.49-1.54,19.87-5.81,28.77-11.22,6-3.64,6.57-9.34,5.1-15.63-1.6-6.89-3.74-13.75-4.38-20.74a29.71,29.71,0,0,1,5.46-20.14c11.45-15.83,20.43-33.05,28.59-50.66,6.36-13.72,9.67-28.18,5.21-43.42-2.84-9.72-4.61-19.7-3.91-29.8.41-6-2.28-9.68-6.78-12-9.6-5.05-19.39-9.76-29.29-14.19a53.64,53.64,0,0,0-16.72-4.47"/><path class="cls-3" d="M281.14,598.62a52.23,52.23,0,0,0-6,0"/><path class="cls-3" d="M442.45,625.93c-1.93.51-3.94.83-5.83,1.43"/><path class="cls-28" d="M431.75,629.81c-4.88,3.44-7.26,8.69-7.95,14.83A26.87,26.87,0,0,0,425.4,658"/><path class="cls-29" d="M426.16,659.68a27.35,27.35,0,0,0,5.52,7.35,100.67,100.67,0,0,1,15.15,19.15c4.93,8,18.17,11.85,26.46,10.07,8-1.72,15.9-3.48,22.7-8.2,4.23-2.93,8.71-5.85,12-9.69,3.78-4.39,3.67-10.14,1.64-15.52A65.93,65.93,0,0,0,489,634.47c-6.58-5.34-14.47-6.48-22.3-7.4-5.26-.62-10.59-.77-15.91-.91"/><path class="cls-3" d="M449,626.12q-3-.07-6-.19"/><path class="cls-3" d="M679.51,85.59a21.83,21.83,0,0,0-5.67,1.92"/><path class="cls-30" d="M668.94,91.51c-2.72,3.56-3.49,8.43-2,14.29,1.71,6.85,3.71,13.62,5.57,20.43"/><path class="cls-31" d="M673,128.28c.84,3.12,1.63,6.25,2.35,9.39,3.68,16.11,7,32.31,10.1,48.53a57,57,0,0,1,1,15.13c-1.05,13.27,3.4,24.48,12.35,33.78A133.59,133.59,0,0,0,717,250.78c11.54,8.31,20.26,3.41,26.1-3.54,8-9.55,16.17-19.24,22.65-29.85a136,136,0,0,0,18.76-53.47,71.87,71.87,0,0,0-.08-21.67c-2.12-12-11.44-18.49-23.52-18.82-11-.3-21.9-1.63-32.36-5.46-7.86-2.88-13.51-8.43-18.72-14.67-6-7.14-12.17-14-21.84-16.11"/><path class="cls-3" d="M685.9,86.77,680,85.59"/><path class="cls-3" d="M487.94,88.12q-2.83,1-5.67,2"/><path class="cls-32" d="M477,91.94c-4.44,1.55-8.88,3.13-13.28,4.82a44.77,44.77,0,0,0-14.82,9.4"/><path class="cls-33" d="M447.54,107.47a59.87,59.87,0,0,0-8.13,10.47c-3.49,5.59-7.18,11.06-10.59,16.7-6.72,11.12-4.26,19.11,7,25.85,7.19,4.3,14.64,3.89,22.29,2.92,8.27-1.06,16.54-2.19,24.77-3.55,14-2.31,26.38-12.47,28.48-27.31.86-6.11-1.33-13-3.39-19.09-2.2-6.52-6.07-12.45-8.85-18.79a10.7,10.7,0,0,0-3.26-4.36"/><path class="cls-3" d="M494.27,89.33a13.76,13.76,0,0,0-5.83-1.21"/><path class="cls-3" d="M744.2,671.92a11.35,11.35,0,0,0-5.61,1.94"/><path class="cls-34" d="M734.49,677.88c-1.34,1.69-2.57,3.51-4,5.15-3.14,3.76-6.35,7.45-9.59,11.13a23.45,23.45,0,0,1-9.37,6.49"/><path class="cls-35" d="M709.76,701.28a37.87,37.87,0,0,1-10,1.45c-6,.14-11.82-.07-17.23,3.49-8.13,5.36-11,13.44-12,22.32-1.93,17.09,5.6,31,16.16,43.41a66,66,0,0,0,30.3,20.69c8.87,2.86,18,2.28,27.29,1.31,10.83-1.13,21-4.12,31.33-7.22,21.34-6.4,33.16-21.8,38.65-42.09,3.57-13.22-1.55-25.64-8.89-36.8-5.61-8.5-13.82-14.11-22.72-18.7q-14.55-7.51-29.33-14.62c-.31-.15-.62-.29-.94-.42"/><path class="cls-3" d="M750.51,673.47c-1.9-.59-3.89-1-5.8-1.55"/><path class="cls-36" d="M-75.57,866.71c-7.94,3.37-11,10.79-11,19a77.28,77.28,0,0,0,3,20.17c1.68,6.17,6.61,10,12.45,12.72,11.34,5.27,22.68,10.58,33.84,16.21C-31,938-25,941.74-19,945.4c10.1,6.17,20.33,5.81,29.74-.67s18.21-14,23.52-25.05c5.68-11.76,4.81-22.79-2.35-32.83C21.57,872.42,8,861.71-9.47,857.06A43.28,43.28,0,0,0-18,855.87"/><path class="cls-3" d="M1005.53,223.58c-1.91.61-3.83,1.18-5.75,1.75"/><path class="cls-37" d="M993.7,227.15c-3,.93-6,1.92-8.86,3.09a47.49,47.49,0,0,0-20.78,16.07"/><path class="cls-38" d="M962.84,248a60.76,60.76,0,0,0-6.74,13.49c-4.09,11.43-7.41,23.15-10.64,34.86-1.82,6.61,2.92,13.73,10,15.05a263.19,263.19,0,0,0,28.3,4c9,.68,16.81-3.22,23.22-9.48a76.48,76.48,0,0,0,22.11-42.46,129.85,129.85,0,0,0,1.95-26.25c-.22-7.15-4.07-14.33-14.44-13.69-.82,0-1.65.08-2.48.09"/><path class="cls-3" d="M1012,223.65c-2,0-4-.07-6-.07"/><path class="cls-3" d="M372.69,307.49c-1.9.64-3.87,1.08-5.73,1.75"/><path class="cls-39" d="M362,312.37a10,10,0,0,0-1.48,2.16c-3.53,6.73-.31,12.4,2.76,17.63a93.73,93.73,0,0,0,6.83,10.26"/><path class="cls-40" d="M371.32,344a49.41,49.41,0,0,0,4.55,4.81c11.4,10.46,19,23.83,28.68,35.53,9.56,11.5,20.95,20.56,35.91,23.59a50.36,50.36,0,0,0,18.63.47c13.92-2.57,27.54-2.74,40.41,3.37C510.57,417,520,415,528.86,407.55c7.36-6.19,15-12,19.29-21.18,6.26-13.57,3.87-28.86-15.24-34.36a21,21,0,0,0-7.06-1c-10.26.74-19.51-2.27-28.3-7.16-4.93-2.74-9.88-2.25-15.2-1.12-7,1.49-14.21,3.37-21.18,2.9-15.13-1-30-4-44.06-10.21-6.38-2.81-10.54-7.36-14-12.82-4.67-7.29-10-13.57-19.26-14.59-.87-.09-1.74-.17-2.62-.22"/><path class="cls-3" d="M379.2,307.71c-2-.09-4-.12-6-.22"/><path class="cls-41" d="M200.33-5.39C201.11,10,194.6,23,187.81,36.12a289.77,289.77,0,0,0-13.15,29.8,241.33,241.33,0,0,0-11.79,41.4c-2.66,14.18-13,15.65-23.68,13.56-5-1-9.72-3.23-14.69-4.39-10.48-2.45-21.09-1.82-30.74,2.63-14.66,6.75-18.56,19.26-11.55,34.64,2.58,5.66,6.5,10.88,10.54,15.67,10.71,12.67,21.76,25.06,32.8,37.45,5.8,6.51,13.46,9.86,21.7,12.2,4.3,1.22,7.71-.48,11.13-2.58,5.74-3.52,11.27-7.44,17.26-10.46,3.29-1.66,7.3-2.27,11.05-2.57a138.64,138.64,0,0,1,15.66-.07,84.05,84.05,0,0,0,24.81-2.92c13-3.49,19-.7,23.63,14,2.66,8.45,4.33,17.2,6.69,25.75,3.46,12.53,12.26,20.66,23.79,25.1,17.44,6.73,35.21,12.67,53.07,18.18,6.54,2,13.74,2.07,20.67,2.67,6.72.58,13.47,1,20.21,1,11.54.07,21.77-3.28,29.86-12.05a119,119,0,0,1,10.1-9.6c6.75-5.75,15-6.21,23.21-5.48,6.37.58,14.8,10.78,15.65,18.09.51,4.36.85,8.75,1,13.14.22,6.06,3.51,10,9.64,10,11.62,0,23.25-.54,34.87-.95,6.58-.23,13.17-.37,19.71-1.05,9.74-1,17.26-5.07,19.79-15.59a41.51,41.51,0,0,1,4.06-10.58c3-5.38,8.1-6.6,12.55-3.59,6.46,4.37,7.16,7.53,3,13.65a16.37,16.37,0,0,1-2.05,3c-9.19,8.62-9.14,18.77-4.44,29.31,4.19,9.43,9.47,18.38,13.47,27.88,7.31,17.38,9.48,35.14-.06,52.44-2.65,4.79-6.94,8.84-11,12.64-6.3,5.86-13.53,10.75-19.55,16.86-11.52,11.7-24.12,13.21-38.4,3.78s-29.25-9.09-45.12-7.69c-6.76.6-13.9-1.28-20.67-2.87-10-2.35-20.11-5.43-27.68-12.68A83,83,0,0,1,389,387.77c-9.76-16.81-23-30.38-37.56-42.87-7.4-6.33-15.31-6.68-23.77-2.07-5.67,3.1-11.54,5.86-18.18,6.09-12,.41-21.17-5.54-29.91-13a93,93,0,0,0-17.16-11.6c-10-5.26-20.75-3.53-30.16,1.09-20,9.84-40.36,19.24-58.72,32.16a49.7,49.7,0,0,0-7.05,5.58c-9.19,9.34-18.6,18.51-27.25,28.34-11.5,13.09-11,27.8-4.12,42.88,1.1,2.4,2,5,3.59,7,7.52,9.39,16.65,11.09,28.25,5.61,3.68-1.73,7.27-3.82,11.14-5,12.39-3.72,21.19.9,22.12,15.6.54,8.5-1.75,16.78-4.53,24.73-5.46,15.56-4.13,30.75,1,46a64.88,64.88,0,0,1,3.78,20.7c0,7.69-3,13.62-7.69,19.26a64,64,0,0,0-8,11.67c-.82,1.59-.09,4.67,1,6.32.67,1,3.59.94,5.32.56,2.95-.65,6.14-1.37,8.54-3,6.26-4.34,13.13-4.51,20.3-4.52,11.31,0,22.73,1.2,33.86-2,15.86-4.49,31.48-10.08,43.31-21.89,12.84-12.82,25.61-25.88,35.54-41.29a46.83,46.83,0,0,0,7.09-21.73,18.55,18.55,0,0,1,.5-2.53c.83-3.52.72-8.41,5.55-8.38,4.58,0,5.89,4.74,7,8.4,1.66,5.47,2.34,11.26,4.23,16.62,3,8.5,9.13,14.78,16.08,20.24,8.48,6.66,15.6,14.36,20.24,24.26,5.8,12.37,16.52,17.74,29.28,20.27,15.87,3.15,31.86,4,48,4.18,10.46.1,20.89,2,31.34,2.84,9.43.8,18.87,1.42,28.31,2,6.56.42,13.2.26,19.68,1.21,3.19.46,6.24,2.63,9.09,4.43s5,4.2,7.65,6c4.38,2.85,6.65,1.69,9.16-2.93,2.61-4.78.38-9.13-.05-13.7-.76-8.11-1.79-16.13,2.86-23.83,3.31-5.5,7.27-8.73,13.78-8.53s11.3,2.57,14.78,8.53c4.53,7.78,5.81,16.32,7.46,24.84,1.5,7.76,2.81,15.55,4.6,23.24,2.62,11.3,9.85,18.82,20.14,23.82,6,2.93,12.14,5.89,17.63,9.68a102.69,102.69,0,0,1,16.14,13.64c5,5.23,4.06,12.34,2.49,18.54-3.36,13.28-7.63,26.32-11.46,39.47-2.64,9.09-4.93,18.17-5.2,27.8-.31,11.34,3.23,21.37,8.79,30.8,8.71,14.78,20.76,26.59,34.32,36.92,5.84,4.45,11.71,8.88,17.7,13.12,8.38,5.93,16.86,7,26.35,1.7,7.81-4.35,15.6-9,24.66-10.89a90.45,90.45,0,0,1,20.24-1.54c10,.13,19.44-2,24.26-12.49q5.58-12.12,11.12-24.26c5.94-13,5.24-26,1.12-39.46-5.27-17.15-12.85-32.77-26.42-44.92-4.54-4.07-9.45-7.73-14.1-11.68a36.47,36.47,0,0,1-5.54-5.57c-5.13-6.83-4.41-12.59,2.52-17.61,10-7.25,19.91-14.65,30.37-21.16,12.15-7.58,24.88-14.23,37.32-21.36,7.07-4.07,14.7-5.21,22.75-5.66,14.45-.81,29.16-.34,43-6,10.35-4.22,19.39-9.95,22.16-21.75a55.28,55.28,0,0,0,1.49-13.62c-.15-7.69,3.62-13.43,8.79-18.11,10.26-9.29,20.83-18.38,33.81-23.77a106.1,106.1,0,0,1,19.72-6.48c9.57-1.9,17,2.64,22.15,10.48,7.12,10.81,13.82,21.9,20.79,32.81,5.31,8.31,10.47,16.74,16.22,24.74a158.06,158.06,0,0,1,26.9,61.27c1.59,7.83-.45,16.46-1.24,24.69-.93,9.8-2.33,19.55-3.47,29.32-.73,6.23-1.45,12.46-2,18.71-.48,5.38-1.37,10.84-.89,16.15.73,8,6.42,12.11,13.49,14.69,9.12,3.32,18.31,6.46,27.25,10.22,3.85,1.62,7.2,4.49,10.64,7a57.48,57.48,0,0,1,5.58,5c9.85,9.48,20.54,5.4,30.8,1.41,18-7,25.43-21.84,28.41-39.82.74-4.45,2.38-8.75,3.45-13.15,1.85-7.58,7.53-11.1,14.18-13.65,12.8-4.89,25.55-9.92,38.44-14.58,5.4-2,11.12-3,16.64-4.65,6.94-2.08,13.88-4.19,20.72-6.58,9.66-3.39,19-7.73,28.88-10.39,9.68-2.61,12.85-9.17,14.12-17.88.72-4.9,1.8-9.75,2.48-14.66,1.43-10.47,8.7-17,15.67-23.78,6.83-6.64,14.11-13,20.11-20.3,12.38-15.15,28.47-24.49,46.14-31.72,4-1.63,8.24-2.73,12.09-4.63,8.45-4.19,11.07-12,11.62-20.66.68-10.58-1.78-20.72-4.48-30.84-2.37-8.88-3.75-18.09-6.79-26.72a171.85,171.85,0,0,0-11.57-24.76c-2.71-5-2.89-9.55-1.45-14.75,1.32-4.8,2.74-9.73,2.91-14.64s-1.18-9.77-1.83-14.65c-1.36-10.11-2.61-20.24-4.09-30.33a69.21,69.21,0,0,0-2.57-11.6c-1.53-4.63-5.85-6.39-10.06-7.5a33.07,33.07,0,0,0-10.57-1c-10.68.79-20.76-1.85-30.84-4.65-9.61-2.66-19.15-5.63-28.83-8a38.81,38.81,0,0,0-28.79,4,195.79,195.79,0,0,1-29.28,13.26c-9.8,3.49-19.13,8.29-28.9,11.89-6.25,2.31-12.78,3.72-19.7,1.76-3.68-1-7.71-1-11.59-1.1-8-.25-11.11-6-13.59-12.19-2.79-7-4.61-14.37-7.81-21.12a43.87,43.87,0,0,0-9.6-13.55c-5.14-4.71-12.55-2.81-16,3.38-10.65,19.26-4.53,38.57,18.65,44.52,6.78,1.74,13.85,3.64,15.68,12.07a15.91,15.91,0,0,1,.49,2.53c.37,8.25.35,16.54,1.13,24.75.71,7.63,2.48,15.15,3.36,22.77.58,5,1.13,10.2.4,15.13-1,6.51-5,11.69-11.48,13.53a162.11,162.11,0,0,1-24.24,5.07c-12.55,1.56-24.58,4.49-35.87,10.24-6.13,3.12-7.15,2.75-12.17-1.48-11.36-9.55-24.11-16-39.39-15.63-6.41.18-12.79,1.38-19.21,1.91-6.05.49-12.21,1.49-18.17.87-10.89-1.15-19.08,2.3-25.36,11.24a158.51,158.51,0,0,1-11.61,14.16A11.85,11.85,0,0,1,999,491.47c-9.94-1.16-19.87-2.37-29.82-3.52-4.71-.55-9.44-1.5-14.15-1.44-13.26.2-25.77-3.44-38.43-6.61a109.4,109.4,0,0,0-28.29-3.65,242.55,242.55,0,0,1-54.6-4.94c-3.13-.68-6.43-.54-9.59-1.1-9.67-1.7-14.62-8.26-17.19-17.15s-4.69-17.65-7.66-26.26c-6-17.28-15.14-32.49-30.25-43.49-10.88-7.92-23.1-12.2-36.38-14.24A108.12,108.12,0,0,1,686,350.51a24.4,24.4,0,0,1-9.42-14.25c-2.91-11-7.88-20.45-16.25-28.34-7.86-7.43-15.14-15.55-24.88-20.57-6.36-3.28-13.08-5.85-19.68-8.66-7.22-3.08-14.45-6.17-21.74-9.07-3.81-1.52-6.19-4-6.55-8.13-.7-8.08-1.67-16.16-1.89-24.26a10.2,10.2,0,0,1,6-9.52,165.35,165.35,0,0,1,17.17-7.09c9.39-3.24,18.81-6.24,27.31-11.64,9.43-6,15.66-17.55,10.15-30.92-2.93-7.08-5.82-14.31-7.44-21.75-1.26-5.83-1-12.11-.62-18.14a63.37,63.37,0,0,0-3.76-24.23,256,256,0,0,0-11.12-27.28c-3.95-8.26-10.63-13.7-19.54-16.87-9.66-3.44-18.9-8-28.36-12-7.39-3.11-14.81-6.12-22.24-9.11-16.75-6.72-29.43-.47-39.94,12.62a14.35,14.35,0,0,1-2,2c-9.1,7.56-11.8,8.05-18-3.62-3.25-6.09-4.38-13.29-7.35-19.57-4.62-9.81-10-19.25-15-28.87-2.9-5.54-5.74-11.12-8.6-16.68"/><path class="cls-41" d="M945.38,1085.39c-.1-9.46-.43-18.94-5.63-27.25-3-4.79-6.65-9.16-10-13.69-3.16-4.21-5.84-8.37-5.72-14.16.11-5.18,3.06-8.88,5.88-12,13-14.31,23.58-30.34,33.63-46.7,8.76-14.25,21.11-22.84,37.5-25.11,11.35-1.58,22.7-1.87,33.89,2.31,15.28,5.72,31,6.27,47,2.68,4.47-1,9.2-1,13.61-2.15,11.5-3.1,14.59-9.41,12.08-20.12-3.55-15.22-11.19-28.66-19-42a260.46,260.46,0,0,1-13.61-26.29c-4.68-10.56-11.51-14.69-22.83-11.46-8.75,2.49-17.19,6-25.82,9-20.22,6.91-38.37,1.73-55-10.16-10.38-7.41-10.72-18.34-9.19-29.76,1.38-10.25,2.46-20.54,3.56-30.83.57-5.26-1.12-10-3.47-14.68-4.52-9-3.77-15,4.11-21.58s16.27-12.11,24.69-17.77c9-6,17.88-3.6,26.81.86a44.33,44.33,0,0,0,13.61,4.51c16.37,2.18,33.68-15.37,37.35-29.19a64.41,64.41,0,0,0,.48-31.81c-2.11-8.84-.92-17.49-.11-26.32a177.05,177.05,0,0,0,0-26.26,96.9,96.9,0,0,0-3-18.18c-2.84-11.23-9.4-20.48-16.57-29.36-7-8.68-13.8-17.53-20.75-26.26-5.86-7.34-12.8-13.37-21.74-16.66-10.1-3.71-20.33-3.46-29.74,1.63-9.95,5.37-17.07,13.7-19.2,25.15-3.25,17.43-14,28.65-28.86,36.93-15.51,8.61-32.28,12.74-49.5,16.42-18.05,3.86-36.68,7-52.57,17.48a49.23,49.23,0,0,0-11.57,10.12c-9,11.52-6.41,17.18-.15,28.23,4.9,8.66,10.2,17.2,14,26.33,8.67,20.62,16.52,41.57,14.82,64.64-.42,5.72-.9,11.45-1,17.18-.12,9.55,3.75,14.38,13.1,16.67,7.9,1.93,16,3.22,23.71,5.69,10.8,3.45,10.84,7.12,9,16-2.39,11.69-3.8,23.23-.38,34.9,2.26,7.68,5.63,14.76,11.11,20.73,6.2,6.77,12.84,13.58,13.48,23.26a134.86,134.86,0,0,1-.94,23.23c-1.12,10.49-2.82,20.92-4.49,31.34a31.35,31.35,0,0,1-8.07,17.17,54.1,54.1,0,0,1-19.68,13.17c-8.83,3.45-16.46.73-23.29-8.07a26,26,0,0,1-5.47-16.7c.07-6.75.59-13.48,1-20.22.72-13.29-3.33-24.83-13.72-33.28-14.75-12-18.91-28.56-21.75-46.07-1.67-10.33-3.21-21-12.07-28.3-11.94-9.86-30.7-13-44.48-1a109.11,109.11,0,0,1-12.16,9.55c-6.89,4.42-14.32,4.52-21.12,0A149.36,149.36,0,0,1,710.39,824c-10.46-9.41-20.84-18.92-30.83-28.81-12.4-12.28-23.15-25.93-28.2-43A47.45,47.45,0,0,1,650,729a172.9,172.9,0,0,0,3.09-27.26c.5-12.45.6-25,0-37.39-.65-13.59-8.88-22.49-22.62-25.25-11.23-2.25-22.17-4.69-32.51-10.35-6.88-3.76-15.21-5.65-23.11-6.63-10.5-1.29-19.76-4.46-27.23-11.9-9.88-9.83-22.27-13.86-35.37-17.34-16.17-4.29-32.31-7.46-49.08-6.33-5.74.39-11.46,1.83-17.18,1.83a84.76,84.76,0,0,1-17.67-2c-12.05-2.6-24.26-4.5-35.48-10.38-9-4.7-15.22-10.94-18.22-20.83-3.94-12.93-15.24-21-27.7-20.2-7.38.46-13.08,5-18.65,9.13-9.8,7.32-19.15,15.23-28.89,22.63-14.08,10.7-30.78,15.37-47.51,19.67-10.17,2.62-20.65,4-30.79,6.75C203,598,190.52,610,181.7,626c-5.27,9.56-10,19.42-14.68,29.29-6.35,13.45-2.82,28.9,7,37.92a65.56,65.56,0,0,1,6.57,7.07c6.63,8.16,4.17,13.3-1.15,18.51-6.48,6.36-13.88,12.11-23.1,14.23a40.1,40.1,0,0,1-12.1,1c-3.51-.28-5.71-3-7.17-6.38a79.12,79.12,0,0,0-6-11.12c-3-4.68-8.89-7.58-12.59-6.61-4.46,1.18-8.66,7.51-9.14,13.14-.83,9.67,4.21,15.68,12.2,19.66,6.11,3,10.06,7.47,11.65,14.2,1.44,6.12,2.64,12.44,5.14,18.15,5.27,12,10.83,23.91,17.19,35.36,5.91,10.65,13.66,20.28,19.38,31,5.62,10.54,8.08,22.28,9.44,34.26.62,5.49,1.93,11.34,4.63,16.06,3.82,6.69,14.11,9.16,22,6.7,15.71-4.9,28.4-13.85,37.42-27.79a64.35,64.35,0,0,1,5.07-7.06,28.3,28.3,0,0,1,18.14-10.28,297,297,0,0,0,29.82-6c9-2.25,17.12.19,25.29,3.15,7.55,2.72,14.86,5.24,23.29,3.15,14.71-3.65,21.73-13.68,25.31-27.41,1.68-6.41.59-12.55-.63-18.71-1.47-7.45.62-12.74,7.67-14.55,18.46-4.74,31-17.58,42.82-31.06,11.55-13.16,24.34-23,42.55-24.85,10.89-1.11,21.66-2.73,32.35.25,17,4.73,24.36,18.16,21.22,34.81-3.21,17-11.12,32.25-17.65,48-3.76,9.07-7.64,18.11-11,27.32-1.78,4.81-1.39,10-1.29,15.13.17,8.58-1,17.18-1.23,25.78a30.74,30.74,0,0,0,1.6,11.56c1.64,4.22,6.64,4.82,13.48,3.68,10.73-1.8,21.54-3.22,32.34-4.6,13.22-1.69,24.88,3.58,37,7.85,13.56,4.79,24.11,13.53,34.89,22.35a45.86,45.86,0,0,0,13.1,7.56c21.64,7.86,43.43,15.29,65.16,22.87,8.78,3.06,13.32,9.68,16.3,18.15A80.3,80.3,0,0,0,712,994.33c5.47,8.52,14.78,12.31,23.09,17.33a166.7,166.7,0,0,1,16.68,11.61c9.63,7.55,9.84,17.27,6.78,28.3s-4.88,22.53-7.24,33.82"/><path class="cls-41" d="M186.18-5.39c-.2,9.66-3.38,18.54-7.07,27.3C170.5,42.29,162,62.73,153.28,83.05c-5,11.59-14.08,16.64-26.73,17.4a323,323,0,0,0-38.4,5C77.8,107.36,69.56,113.51,63.4,122c-7.2,9.93-4.86,20.4-1,30.8,5.11,13.93,13.05,25.59,25.72,33.94,12,7.93,21,19.06,30,30.17,7.74,9.57,13.48,19.73,16.23,31.89a24.68,24.68,0,0,0,24.61,19.38A16.66,16.66,0,0,0,175,256.43c1.52-4.66,2.69-9.44,4.08-14.14,2.56-8.62,6.35-16.26,16.68-17.09a36.42,36.42,0,0,1,11.09,1,144.14,144.14,0,0,1,16.68,5c9.49,3.47,13.95,11.64,17.66,20.19a78.05,78.05,0,0,0,14.69,22.24c3.17,3.41,6.13,7,9.11,10.6,6,7.27,2.7,12.6-5.57,15.09-5,1.5-10.07,2.5-15.15,3.59-13,2.78-23.92,10.44-35.89,15.65-22.33,9.71-41,24.91-60.22,39.35-5.2,3.9-11.26,6.75-17.13,9.65a37.18,37.18,0,0,0-16.29,15.14c-3.18,5.46-7.46,10.32-11.52,15.22-7,8.44-9.07,15.14.6,24.73A164.55,164.55,0,0,1,126.63,450c6.24,9.63,14.18,17.57,26.2,19.74,3.84.7,7.77.87,11.61,1.58,10.64,2,11.25,2.78,12.52,13.12,1.84,14.86,2.86,29.78,5.93,44.52,1.54,7.35,1.39,15.87-4.89,21.58-12.09,11-17.18,25.12-20.24,40.52a28.38,28.38,0,0,1-4.56,10.55c-3.53,5-8.46,7.74-15,7.26-4.69-.34-9.64-.57-14.11.57-10.88,2.76-14.08,12-16.77,21.56-2,7-3.67,14.15-9,19.78-4.7,5-11.33,7.65-19.77,3s-16.71-9.7-25.34-14a35.41,35.41,0,0,0-12.58-3.53c-10.83-.91-17.24,3.83-21.77,14.51A88.3,88.3,0,0,0,12.23,682c-.41,10.4-5.06,18.86-19.11,20.87-18.14,2.59-36.37,3.74-53.48-3-16.81-6.59-34.56-11.46-49.61-22-8.17-5.72-15.7-12.33-23.85-18.07-9.06-6.37-18.47-12.23-27.76-18.25-4.95-3.2-8.5-3.52-12.57.06-10.91,9.62-22.2,19.32-28.18,32.86-7.39,16.73-18.27,31.06-28.46,45.94-7.11,10.37-17.67,13.8-29.33,15.72-12.85,2.12-24.29,7-30.25,19.68-2.26,4.79-3.09,10.24-5.23,15.09-4.3,9.75-11.54,17.08-20.1,23.33q-16.89,12.35-33.37,25.27c-8.27,6.47-14.82,14.17-17.82,24.7a81.24,81.24,0,0,1-15.42,29.46c-6.42,7.86-11.67,16.69-17.31,25.17-4.15,6.23-9.31,11.31-16.73,13-4.4,1-9.07.8-13.62,1.14"/><path class="cls-41" d="M-339,1084.88c2.7-4,5.62-8,8-12.16,5.87-10.19,11.77-20.39,17.17-30.83,8.9-17.22,23.69-25.6,42-28.74,12.81-2.19,26-1.81,38.41-6.61,3.53-1.37,7.35-2.24,10.57-4.13,12.53-7.37,15.43-16.55,11-32.22-2.15-7.66-6.06-14.82-8.9-22.3-3.7-9.71-6.91-19.61-10.73-29.28-2.85-7.21-6.08-14.3-9.59-21.22-5.89-11.63-.6-29.12,5.66-36.39,4.78-5.57,11.16-5,17.66-4.15,5.68.69,11.54,1.55,17.16.93,16-1.78,24.58-12.5,29.83-26.64,1.42-3.85,2.82-7.71,4-11.63,2.17-7,5.49-13.36,11.16-18.16,6.78-5.74,9.65-13.27,11.25-21.74a21.94,21.94,0,0,1,4.5-9c3.4-4.27,8.46-4.31,12.51-.56,3.15,2.91,6.14,6,9.11,9.08a14.6,14.6,0,0,0,11.64,4.53c16.17-.72,31.08,3.6,45.53,10.54,12.12,5.82,24.51,5.43,35.79-2a298.9,298.9,0,0,1,48.53-25.82c4.25-1.8,8.14-4.88,11.6-8,5.58-5.09,5.12-9.54-1.5-13.45-4.38-2.59-9.32-4.3-14.1-6.15a219.77,219.77,0,0,0-43.48-11.55c-7.65-1.27-15.48-1.5-23.23-2.11-9.43-.73-18.86-1.53-28.31-2-3.68-.17-7.4.68-11.12.9-5,.31-9-1.46-12.68-5-9.8-9.41-19.64-18.81-29.88-27.73a43.81,43.81,0,0,0-13.09-7.55c-5.94-2.25-12.17.24-15.53,6-4.23,7.2-7.94,14.72-11.67,22.2-2.39,4.79-3.69,10.31-6.83,14.48a33.44,33.44,0,0,1-11.48,9.12c-10.86,5.55-18.31,13.69-21.62,25.43-1.26,4.47-1.79,9.17-3.14,13.61-2.16,7.16-7.57,10.88-15.1,11.16-5.9.23-11.79.93-17.69.92-6.05,0-10.15,3.49-13,7.75-7.89,11.78-19.34,17.72-32.52,20.51-15.26,3.23-27.27,11.74-38.32,21.93-6.62,6.11-9.43,14.39-10.67,23.18-1.64,11.7-7.8,21-15.7,29.29-10,10.53-13,22.79-10.17,36.94a230.61,230.61,0,0,1,4,27.29c.54,7.14-2.69,13.26-9,17.12-6.62,4.08-13.49,7.73-20.18,11.69-9.59,5.68-18.72,12-23.18,22.77-1.86,4.5-2.82,9.38-4.11,14.12-1.87,6.85-4.49,13.13-11.64,16.17"/><path class="cls-41" d="M214.49-5.39c-.34,7.92-.46,15.86-1.08,23.75a40.62,40.62,0,0,1-8.07,21.2C196.42,51.63,190.7,65.28,185.21,79c-5.32,13.36-4.64,26.51,1.91,39.44a146.41,146.41,0,0,1,6.11,15.14c1.46,4,2.29,7.92-1,11.64s-7.22,2.72-11.14,2c-14.55-2.73-29.08-5.69-44-5.47-3.71,0-7.42.92-11.12,1.45-9.29,1.35-11.13,9.9-9,18.17a43.9,43.9,0,0,0,15.07,23.28c5.61,4.61,11.68,5.34,18.74,3.66,9.31-2.21,18.86-3.38,28.27-5.21,9.57-1.87,17.65-5.62,20.8-16.12,2.43-8.08,7.83-12.9,16.59-14.28,12.15-1.92,20.1-9.45,24.78-20.62,3.66-8.71,7.93-16.83,16.66-21.79,10.22-5.8,16.65-2.75,24.26,2.61,7.94,5.59,15.82,11,24.7,15.32,18.22,8.76,35.07,6,51.64-3.74,6.45-3.79,12.63-8.11,19.3-11.46,3.43-1.72,7.63-2.26,11.55-2.57a115.26,115.26,0,0,1,15.66,0,16.8,16.8,0,0,0,13.1-5.16,436.73,436.73,0,0,1,40.34-35.52C469.81,61.05,470.59,49,464,34.64c-5-10.93-11.92-21-18-31.43a10.28,10.28,0,0,0-1-1.52c-7.62-9-13.06-8.89-20.74.49-2.41,2.95-5.11,5.68-7.55,8.62-5.67,6.83-13.87,8.78-21.76,9.35-14.75,1.05-21.79,9.6-25.85,22.45-1.33,4.21-2.9,8.7-5.61,12-8,9.87-15.66,12-27.51,1.45-10.33-9.19-17.63-21.05-23.4-33.69-3.91-8.58-7.73-17.19-11.68-25.75-.31-.68-1.3-1-2-1.54"/><path class="cls-41" d="M256.94,1085.39c-.33-9.27-.61-18.54-1-27.8-.47-10.48,4.7-17.57,14.16-19.25,4.42-.78,8.75-2,13.15-3,12.29-2.58,20.23-8.07,22.18-23.27a154.59,154.59,0,0,0,1-16.67c.2-9.69,4.52-16.53,13.73-19.07,6.87-1.9,14.12-2.45,21.18-3.69,8.71-1.54,17.94-2.06,24.67-8.69,3.13-3.09,6.28-7,7.47-11.08a46.58,46.58,0,0,1,17.81-25.33c3.76-2.79,6.66-6.82,9.65-10.53,2.28-2.83,3.81-6.27,6.17-9,5-5.86,10.71-10.67,18.6-12.86a57.12,57.12,0,0,0,16.62-7.57c7.86-5.36,9.92-14.4,11.66-23.1,2.32-11.67,4.07-23.62,9.39-34.25,4.49-9,10.93-16.94,16.45-25.39,4.6-7,9.85-13.78,13.49-21.3,5.76-11.92,4.15-17.89-4.06-23.41-6.79-4.56-15.31-4.07-23-.72a34,34,0,0,0-13.79,11c-9.73,12.76-20,25.11-30.27,37.45a43.31,43.31,0,0,1-8.56,7.58c-10.88,7.58-17.09,18.75-21.42,30.49-4.69,12.74-13.56,21.5-23,30.26a86.28,86.28,0,0,0-11.06,11.65c-6.89,9.37-16.24,13-27.39,13.06-17.94,0-35.5,2.33-52.58,8A54.13,54.13,0,0,0,256,922.71c-9,9.35-10.85,16.72-4.73,29.29a66.62,66.62,0,0,1,5.53,16.15c2,10.3-3.11,18.19-10,25.26s-14.88,13.74-20.53,21.87c-13.06,18.78-28.85,35.18-43.65,52.44-4.38,5.1-8.38,10.49-8.62,17.67"/><path class="cls-41" d="M524.84-5.39C526,4,530,11.91,537.48,17.85A98.7,98.7,0,0,0,586,38.42c7.27,1,14.83-.23,22.21.26,11.15.73,22.73-2.81,33.39,3.41,6.36,3.7,10.55,12.73,9.11,19.76-3.32,16.19-3.57,32,2.29,48.08,7.4,20.25,13.7,40.93,19.78,61.63,3.53,12,2.94,24.4.83,36.89-2.37,14.07,1.53,27.08,10.45,38.36a72.93,72.93,0,0,0,8.11,9.07,109.15,109.15,0,0,1,28.32,39.45A33.74,33.74,0,0,0,735.64,312c6.88,3.84,14.17,1.11,16.51-6.56a75.35,75.35,0,0,0,3-17.65c.33-6-1-12.14-.76-18.19.43-10.88,3.87-20.94,9.46-30.35a274.58,274.58,0,0,0,26.44-60.6,230.56,230.56,0,0,1,11.15-29.28c4-8.64,11-15,18.53-20.82,7.75-6,14.16-13,15.64-23.23a81.52,81.52,0,0,0,.53-10.61c.08-6.57,0-13.14,0-19.71,0-11.59,3.75-16.9,14.64-21.26,5.62-2.25,11.77-4.2,14.06-10.62,1.13-3.15.9-6.75,1.67-10.06,2.27-9.85,9.74-14.17,19.69-12.25a48.33,48.33,0,0,0,13.11.5c5-.42,10-6.5,10.59-12,.49-4.87.71-9.77,1-14.66"/><path class="cls-41" d="M-67.56-5.39c0,19.09-10,29.69-29.82,31.87-7.77.86-15.49,2.72-23.25,2.79-6.56.06-13.22-1.45-19.69-2.92-6-1.36-11.76-3.83-17.74-5.37-3.66-.94-7.55-1.61-11.11.91-4.2,3-5,6.52-1.42,10A63.62,63.62,0,0,0-159,41c7.12,4.25,10.88,10.45,12.6,18.29,2,8.91,5.8,17,10.52,24.81a36.09,36.09,0,0,1,4.49,10.6c1.27,5.76-1.57,10-6.4,13.17a66.77,66.77,0,0,0-8.1,6.54c-3.74,3.42-4,8-3.51,12.61.32,3.17,3.34,5.87,7,3.53,3.39-2.15,7.21-3.9,10-6.66,5.87-5.79,13.17-7.93,20.82-9.49,7.06-1.43,14.29-2.22,21.2-4.17,11.92-3.35,21.85,0,30.87,7.68,5.24,4.5,10.88,8.35,17.68,10.12,13.08,3.39,23.32-4.76,23.87-18.19C-17.48,99.39-16,89-15,78.52c.49-5.06.23-10.35,1.67-15.12C-10.09,52.73-.88,48.46,8.8,45.78c10.88-3,21.16-.6,31.38,4.28A97.23,97.23,0,0,0,81.55,59.9c10.81.11,18.86-4.64,25.24-12.75,8-10.18,12.3-21.68,11.7-34.85-.26-5.88,0-11.79,0-17.69"/><path class="cls-41" d="M1074.77-5.39c-3,12.81-5.77,25.69-9.18,38.39-3.2,11.9-1.71,23.18,2.59,34.41,1.33,3.48,2.27,7.11,3.59,10.59,2.21,5.86,0,10.22-4.61,13.62-3.89,2.9-8.05,5.44-12.1,8.13-14.79,9.83-18.33,19.82-14.49,37.87,2.19,10.27,6.27,20,14,27.87,7.84,8,17.75,11.07,28.35,12.53,3.31.46,6.75-.14,10.1.12,6.89.52,10.28-3.7,12.6-9.16,6-14.11,12-28.22,17.65-42.47a166.65,166.65,0,0,0,6.55-20.72c1.83-7.3,6.48-11.65,13.26-13.55,17.25-4.82,31.07-14.9,43.45-27.36,7.24-7.29,11.11-16,10.58-26.29-.76-15.06,2.7-29.51,6.1-44"/><path class="cls-41" d="M960-4.88c1.69,1.68,3.31,3.44,5.07,5,6.54,5.93,13.07,11.87,19.72,17.69,7.39,6.46,11.39,15.14,15,23.84,3.1,7.5,7.65,12.32,15.84,12.48,7.52.14,12.66-4.37,16.11-10.56a77.13,77.13,0,0,0,9.64-35.86c.13-4.37,0-8.76,0-13.14"/><path class="cls-41" d="M281.71,480.36c-10.75,1.82-19.74,7-28.45,13.44-4.55,3.34-10.52,5-16.06,6.68-6.71,2.07-12,5.24-13,12.74a13.52,13.52,0,0,0,1,7c5.28,11.51,12.08,21.69,24.14,27.39,9.21,4.36,17.82,3.08,26.31-1.59,7.07-3.89,12.28-9.91,16-16.75,5-9,11.33-17.44,12.89-28.21,1.82-12.53-5.73-19.86-16.78-20.71-1.85-.15-3.71,0-5.56,0"/><path class="cls-41" d="M85.59,486.42c-7.26,2.67-10.4,9.25-14.11,15.19-2.88,4.6-5.33,9.47-8.15,14.12-5.61,9.26-14.58,12.46-24.74,13.12-7.91.51-15.9.2-23.74,1.16C3.49,531.4-4.8,538-11.5,547c-9.24,12.51-14.23,26.89-18.56,41.51-3,10-9.09,17.1-18.35,21.08s-18.78,6.94-28.25,10.21c-13.22,4.56-16.16,14.94-7,25.77,3.69,4.39,8.28,7.65,14.12,8.61,8,1.32,15.74,4.08,24.3,2.2,12.34-2.73,22.19-13.77,22.2-26.45,0-5.39.38-10.82-.09-16.17-.66-7.39,3.53-13.78,11.26-16a111.63,111.63,0,0,1,23.72-4.06c10.91-.68,21.89-.17,32.84-.17,8.51,0,14-3.85,17.19-12.13,2.18-5.57,4.29-11.16,6.59-16.68C74.2,551,85,543.42,99.23,540c7.8-1.91,15.14-4.8,20.77-11.05,8.73-9.71,6.7-18.87-1.18-26.17-5.71-5.29-12.52-9.48-19.13-13.7-4-2.56-8.8-3.09-13.59-2.62"/><path class="cls-41" d="M543.54,61.84c-11.31,3.7-13.16,13.2-14.74,23.24-2.32,14.74,1.68,28.77,4.2,43a59.78,59.78,0,0,1-1.49,27.34c-1.72,6.08-3.68,12.5-3.35,18.65.49,9.07,4.64,17,14.39,19.65,8.15,2.25,16.5,3.73,24.74,5.66,7.6,1.78,15.13,3.85,22.76,5.5,11.45,2.49,22.7,2.81,32.84-4.51a17.74,17.74,0,0,0,6.56-19.7,34.13,34.13,0,0,0-2.56-6.55c-6.63-11.51-5.63-23.15-2.15-35.46,3.82-13.49.16-26.36-6.43-38.35-6-10.85-15.32-16.38-27.76-17.3-8-.6-15-3.47-20.88-9.87C563,65.83,554.47,61.29,544,61.84"/><path class="cls-41" d="M472.77,608.74c-4.88.68-9.75,1.72-14.66,2-11.78.56-23.6.45-35.37,1.23-4.77.31-9.51,2-14.14,3.47a7,7,0,0,0-5.06,7.5c.87,15.06-3.85,28.54-11.07,41.49-5.15,9.24-6.47,19.09,0,28.2,7.06,9.88,16.36,16.83,28.7,19.34,13.43,2.73,27,2.44,40.44,1.73,10.68-.56,21.21-3.45,31.87-4.74,11.39-1.38,21.68,1.65,30.32,9.51,10.56,9.63,16.94,21.93,22.19,34.9,3.26,8.06,5.37,16.38,5.23,25.26-.07,4,1,8.12,1.93,12.12,1.43,6.43,5.59,9.8,12.07,11.23,7.55,1.67,14.87,3.39,22.8,2.1,4.87-.8,9.42-6.55,9.58-11.3.12-3.54.21-7.09.52-10.61.71-7.94,5.22-13.93,10.63-19.17a79.86,79.86,0,0,0,22.6-41c2.93-13.23,3.13-26.33-4.88-38.44-4.85-7.33-12.2-10.44-19.76-13.63-12.86-5.43-25.49-11.46-38.49-16.51-8-3.1-16.45-4.88-24.71-7.21A41.09,41.09,0,0,1,525.33,635c-6.75-6.81-13-14.3-21.77-18.62-6.95-3.42-14.16-6.49-22.19-6.71-2.7-.07-5.39-.63-8.09-1"/><path class="cls-41" d="M261.49,609.75c-11.52,2.71-22.74,6.12-33.42,11.51-9.64,4.87-15.89,12-18.63,22.36-3.72,14,2.12,23.49,12.58,28.41a174.22,174.22,0,0,1,22.71,12.65c8.83,5.9,14,14.92,17.72,24.67,3.24,8.54.59,14.73-8.06,19.14-6.44,3.28-13.32,5.74-19.64,9.23-9.12,5-18.15,10.33-26.78,16.17-15.63,10.57-17.26,32.89-8.06,48.9,1.82,3.18,4.55,5.85,7,8.63,5.65,6.38,13.46,6.73,20.66,5.33a212.21,212.21,0,0,0,32.34-9c14.39-5.27,19.12-17.33,20.39-31.67a236.22,236.22,0,0,1,4.59-30.3c2-9,7.76-16,14.48-22.31,6.32-5.88,11.56-12.72,13.54-21.23,1.5-6.42,1.81-13.11,2.66-19.68.5-3.88.66-7.84,1.58-11.61a66.68,66.68,0,0,0,.85-25.78c-1.87-12.59-10.92-19.93-20.58-26.87-10.75-7.72-22.73-9.39-35.43-8.53"/><path class="cls-41" d="M904.43,102.27c-16.94,3-28,14.42-38.39,26.82-11.08,13.28-23.1,25.56-37.44,35.33-13,8.86-21.23,21.06-25.74,35.92-4,13.11-8.08,26.2-11.53,39.45-1.94,7.48-2.42,15.31.93,22.7,2.64,5.84,7.56,9,13.61,10.63,6.4,1.69,13.19,2.53,19.11,5.26,8.13,3.73,15.66,8.79,23.33,13.46C861,299.57,875,301.89,889.22,300c6-.8,12.17-5.22,17.1-9.37a316.16,316.16,0,0,0,27.77-26.27c4.66-5,8.11-11.38,11.18-17.59,8.06-16.25,21.29-26.94,36.46-35.9,5.81-3.44,11.68-7.12,16.61-11.68,9.59-8.88,9.66-16.33,3-27.11A88.4,88.4,0,0,0,990.28,158a58.85,58.85,0,0,1-11-17.28c-3.67-8.48-9.57-14.14-18.18-17.82a278.2,278.2,0,0,1-30.31-15.16c-8.22-4.77-16.78-5.8-25.86-5.42"/><path class="cls-41" d="M722.47,144.73c-1,.34-2,1-3,1-10.66-.36-16.42,8.26-14.5,19.23,2.37,13.6,5.62,27.06,9.13,40.42.93,3.53,3.64,7.09,6.49,9.51,5.45,4.63,10.65,4.66,17,.07,15.25-11,23.52-26.24,24.7-44.92.66-10.35-3.44-16.3-13.58-19.54-8.33-2.67-17.13-3.87-25.72-5.73"/><path class="cls-41" d="M361.57,145.74c-8.42,1.35-16.81,3-25.28,4-9.56,1.05-19.21,1.33-28.8,2.15-5.47.47-8.7,5.74-7,12.07,2.72,10.18,6.21,19.93,14.5,27.4,7.78,7,14.78,14.88,22.36,22.12a42.5,42.5,0,0,0,29.28,12.14c12.52.27,14.24-7.39,12-16.63-1.71-7.19-4.27-14.18-6.48-21.25s-.67-13.57,1.47-20.24c1.48-4.62,3-9.36,3.44-14.15.53-5.54-1.92-7.54-7.43-7.56h-7.58"/><path class="cls-41" d="M658.78,823.06c-15.56,3.8-27.1,12.75-33.79,27.33-4.89,10.66-7.41,22-6,33.81.46,3.83,2.77,7.47,4.4,11.13a32,32,0,0,0,15.22,16c12.94,6.28,30,3.18,37.33-12,3.69-7.59,7.26-15.25,11.19-22.71a47,47,0,0,1,6-8.1c7.35-8.63,5.29-15.63-.17-22.14-6.55-7.78-14-14.95-23.15-19.75-3.26-1.71-7-2.45-10.57-3.62"/><path class="cls-41" d="M891.29,179.1c-5.74,1.56-11.57,2.41-16.28,7-5,4.84-6.22,10.59-5.31,16.77.87,6,2.87,11.82,4.41,17.71,2.33,8.89,8.38,14.36,17.2,14.91,7.55.48,14.67-2.43,19.18-9.35,6.27-9.61,9.26-19.9,6.06-31.33-2.3-8.24-7.78-13.12-16.16-14.64-2.84-.51-5.73-.7-8.59-1"/><path class="cls-41" d="M-18.53,836.2c-20.22,5-40.36,10.44-60.68,15-11.86,2.68-20.21,8.33-22.16,20.86-2,12.71-5,25.08-10.16,36.9-3.34,7.65-.8,14.47,4.14,20.12,8.16,9.35,19.24,14.34,30.77,18.17a16,16,0,0,0,8,0c16-3.41,29.63,2.6,43,10.15,5.83,3.3,11.61,6.47,18.64,7.37,4.68.6,9.24,0,12.54-2,17.93-11,33.11-24.68,40.64-45.26q5.81-15.87-2.16-30.31C37.1,874.66,30,862,18.8,852.46c-6.33-5.37-12.95-10.79-20.31-14.41-4.68-2.3-11-1.35-16.51-1.85"/><path class="cls-41" d="M764.93,937.29A36.94,36.94,0,0,0,742.73,952c-10.22,14.43-6.05,28.44,6,37.37,9,6.66,19,11.52,29.29,15.74,5.82,2.38,11.78,2.2,17.72,1.85,6.38-.37,10.89-8.39,9-16.05a62.56,62.56,0,0,0-4.5-11.63c-4.93-10.34-9.79-20.73-15.22-30.8-4.07-7.56-10.72-11.59-19.62-11.17"/><path class="cls-41" d="M1088.42,225.61c-15.64,3.61-25,14.06-32.53,27.7-9.56,17.39-13.58,36.38-18.57,55.18-2.52,9.47-5,19.4-13.23,25.61-5.87,4.46-12.83,7.64-19.61,10.71-11.49,5.2-23.36,9.54-34.79,14.85-7.55,3.51-14.51,7.95-17.83,16.54-4.44,11.52-.15,25.77,10.76,31.76a62.48,62.48,0,0,0,16.66,6.52c11.55,2.48,21.37,7.85,30.31,15.3,4.8,4,9.82,7.9,16.65,7.05,2.74-.34,5.71-.74,8-2.07,5.59-3.21,10.81-7,16.25-10.5,10.58-6.72,14.2-17.24,15-28.83,1.09-14.79,1.26-29.66,2.29-44.46a14.68,14.68,0,0,1,4-8.48,137.07,137.07,0,0,1,16.63-14.69c14.14-10.3,21-25,25.63-41.05,1.81-6.28,3.74-12.77,3.85-19.2.09-6.21-1.77-12.54-3.37-18.67a57.72,57.72,0,0,0-5-12.62c-4.37-8.12-11.48-11.52-20.64-10.65"/><path class="cls-41" d="M621.38,303.45c-8.59,2.69-17.25,5.21-25.76,8.13-9.7,3.33-15.11,6.87-13.09,21.17s4.39,28.37,7.1,42.45a57.25,57.25,0,0,0,10.11,22.69,35.42,35.42,0,0,1,6.79,15.77c.51,3.56-1.13,7.38-1.26,11.1a185.8,185.8,0,0,0,0,20.71c.79,10.08,7.15,16.47,15.56,21.25q31.88,18.13,63.69,36.38a74.3,74.3,0,0,1,7.05,4.08c9.31,6.77,19.61,7.52,30.34,5,7.31-1.75,14.49-4,21.75-6,3.78-1,7.19-1,10.17,2.46,6,7.08,12.69,13.64,18.53,20.86A25.27,25.27,0,0,1,777.7,544c.83,12.61-3.91,24-6.65,35.91-2.21,9.61-2.33,19.2.86,28.82,2.85,8.57,11,12.3,19.82,10.64,16.21-3.06,28.47-13.26,41.47-22.25a225.82,225.82,0,0,1,20.78-13c2.82-1.52,6.65-1.62,10-1.59,7.75.05,15.52,1.11,23.24.77a102.76,102.76,0,0,0,22.69-3.1c7.41-2,12.87-8.25,12.19-17.47-1-13.83,3.81-25.19,14.11-34.43a47.46,47.46,0,0,0,7.56-8.58c4.87-7.18,2.74-10.76-2.5-14.05-12-7.52-25.15-12.26-38.89-15.15-23.71-5-47.82-2.9-71.76-2.89-5.39,0-11,2.26-16.13,4.45-9.92,4.25-20,7.7-30.86,6.31-9.21-1.17-18-.89-26.87,2-1.43.46-4.8-1.1-5.26-2.43-1-2.75-1.69-6.55-.49-8.88,1.91-3.69,5.21-6.83,8.39-9.67,6.14-5.49,13.19-9.78,18.31-16.62a24.77,24.77,0,0,0,4.68-20.3c-4.32-21.21-14.12-39-35.23-47.93-6.73-2.84-14.15-4-21.16-6.24-7.81-2.5-15.49-5.42-23.27-8-9.75-3.27-19.67-6.08-29.26-9.75a57.43,57.43,0,0,1-14.12-8.07c-6.27-4.8-8-12.07-8.12-19.6s-.48-15.1-3.56-22.25C642.78,309.26,634,304,621.88,303.45"/><path class="cls-41" d="M857.93,330.74c-4.55,1.52-9.26,2.67-13.61,4.63-8.85,4-13.14,11.36-15.32,20.62-1.63,6.92-.12,13.3,1.68,19.72,2.18,7.81,5.06,15.43,6.9,23.3,1.22,5.22,1.09,10.76,1.66,16.14.92,8.61,1.47,17.42,8.63,23.71a17.74,17.74,0,0,0,5.53,3c11.32,4.27,22.56,3.25,33.87-.4,8.19-2.65,10.66-9.87,9.46-16.72-2-11.19-1.13-21.95,3.21-32.35a80.13,80.13,0,0,0,5.89-25.3c.78-10.94-2.91-20.35-13.07-25.68-10.72-5.62-21.57-11.35-34.32-10.71"/><path class="cls-41" d="M246.33,336.81C239,338.88,232.1,342.3,227.26,348c-8.12,9.65-18.44,14.16-30.46,16.1-20.19,3.24-30.2,17.62-37.33,34.87a17,17,0,0,0-1,7.54c.4,5,7.05,9.06,12.55,8.11,16.51-2.85,32.15-7.74,46-17.64,12.24-8.73,20.5-5.1,31.71,4.08,10.74,8.79,21.7,17,34.46,22.63a172,172,0,0,0,42.5,12.86c4.59.71,9.77-1.92,14.6-3.3,2.29-.66,4.33-2.15,6.6-2.94,6.14-2.14,10.61,1.83,12,6.56,3.15,10.53,6.16,21.13,8.55,31.85a113.41,113.41,0,0,1,2.55,20.7c.4,11.57,3.14,21.7,12.14,29.93a256.74,256.74,0,0,1,22.24,23.22c7.84,9.25,18.45,12.09,29.42,14.57,7.57,1.71,15.11,3.64,22.75,5,11.52,2,23,3.86,34.89,2.28,12.65-1.67,25.19-3.25,37.41-7.19,7.74-2.49,14.81-6,18.48-13.32A58.25,58.25,0,0,0,553,525.82c1.41-10.62,6.34-17.46,16.29-21.88,13.22-5.87,18.9-23.82,12.78-36.25-3.44-7-10.23-9.22-16.26-12.57-6.49-3.61-13-2.55-19.74-.17a72.71,72.71,0,0,1-15.13,3.1c-10.65,1.35-19.84-2.85-28.83-8-8.64-4.92-17.32-9.84-26.33-14-3.73-1.73-8.36-2.19-12.56-2.08a195.18,195.18,0,0,1-49.54-5.14c-6-1.39-12.14-2.33-18.19-3.58-11.81-2.43-17.59-10-19.29-21.71-2.64-18.17-13.72-31-28.31-40.83-6.39-4.33-13.71-1.82-20.64-.15-5.37,1.3-10.82,3.49-16.16,3.3a61.76,61.76,0,0,1-22.32-5.14c-10-4.32-17.19-12.19-25.72-18.34-4.81-3.47-10-6.08-16.16-5.57"/><path class="cls-41" d="M-32.68,341.86c-2.36.51-4.9.61-7,1.59-7.23,3.31-10.4,9.49-10.6,17.11-.23,9.43,0,18.87,0,28.31v27.8c0,5.39-.44,10.83.1,16.16.78,7.7,5.71,12.34,12.49,15.77,12,6.06,23.77,7.42,36.52,2.13,5.59-2.32,12-2.81,18.12-3.67,6.87-1,13.87-1,20.7-2.19,7.31-1.22,10.83-6.4,11.19-14.05.41-8.66-2.22-16.64-4.52-24.79-1.92-6.79-3.26-13.76-4.59-20.71-1.42-7.38,2.18-13.94,4.09-20.69,3.88-13.71-4-17.8-14.76-18.61-8-.6-16.18.21-24.24-.21s-15.85-1.58-23.76-2.44c-4.39-.47-8.77-1-13.15-1.51"/><path class="cls-41" d="M1320.93,353c-11.12,3.88-22.14,8.06-33.39,11.54-11.83,3.66-20.58,11.71-29.86,19.21-5.54,4.49-11.8,8.06-17.6,12.25-4.17,3-8.61,5.91-12,9.67-5.87,6.42-5.34,14.87-4.48,22.62,1.33,12,3.87,24,5.88,35.91,2.72,16.21,13,18.77,25.27,16.66,9-1.55,15.6-6.69,20.8-14.08,2.1-3,4.58-6.1,7.62-8,3.22-2,7.48-3.88,11-3.42,6.2.8,12.34,3,18.2,5.36,9.31,3.77,10,9.66,9,16.57-2.1,13.91-5.86,27.52-12.68,39.85-4.5,8.13-11.53,14.46-19.58,19.26-8.38,5-17.49,5.23-26.76,3.06-5.41-1.27-10.86-2.44-16.16-4.08-12.73-3.94-20-12.93-22.76-25.73-3.65-16.72-13.13-21.64-28.35-24a58.53,58.53,0,0,0-30.33,3.12c-11.13,4.35-17.9,12.5-22.71,22.86-2,4.24-3.92,8.49-6.08,12.63-3.56,6.83-9.75,9.28-16.65,6.56a35.34,35.34,0,0,1-19.79-18.65c-3.44-7.4-7.5-14.51-14.08-19.74-8.16-6.49-17.08-9-27.31-5.59-8.73,2.91-10.59,10-9.16,19.25,2.2,14.26,9.06,26.77,14.26,39.9,7,17.69,18.17,33,28.88,48.47,4.26,6.16,10.71,11,14.32,17.39,5.77,10.28,11.09,21.1,14.53,32.33,2.48,8.07-1.24,16.78-4.36,24.58-2.5,6.25-6.76,11.76-9.88,17.79a40.94,40.94,0,0,0-4.79,21.72c.57,9.94,10.64,17.25,20.9,18.74,7.2,1,14.17-.22,21.25-.93,6.18-.62,12.46-.29,18.69-.08,5.16.17,8.44-1.73,10.71-6.58,3.87-8.25,8-16.41,12.63-24.25,5.55-9.42,14.61-13.15,25.19-13.7a66.38,66.38,0,0,0,33.35-11.14c8.68-5.67,18.53-8.2,28.28-11.19,11.41-3.5,22.69-7.44,33.87-11.61,9.39-3.49,12.36-11.56,12.56-20.65.17-7.91-.69-15.84-.88-23.76-.27-10.92,4.71-19.37,14.72-23,11.18-4.06,19.79-10.9,28.46-18.66,5.77-5.17,13.71-8.15,21-11.3,12-5.17,24.16-10,34.87-17.74,7.34-5.34,11.2-12.11,11.12-21.28-.13-14.45-2.61-28.36-11.78-39.84-11.24-14.06-25.91-22.67-44.37-23.26-6.21-.2-12.46.73-18.7.86a24.52,24.52,0,0,1-8-1c-3.58-1.16-4.7-5.17-2.53-8.47,3.39-5.15,8.55-7.93,14.12-10.15a223,223,0,0,0,32.41-16.06c8.68-5.2,12.67-12.29,12.69-22.34,0-7.77-.6-15.19-7.28-20.09a36.72,36.72,0,0,0-12.07-5.58c-15.59-4.15-31.26-8.08-47-11.6-4.69-1.05-9.74-.47-14.62-.64"/><path class="cls-42" d="M-347.58-5.42c1.15,7.17,4.5,13.41,8.64,19.18,7.08,9.89,13.62,20.34,21.86,29.18,15.8,17,36.34,26.15,58.46,32,5.73,1.52,11.47,3,17.18,4.57a28.47,28.47,0,0,1,15.7,11.08c6.49,8.86,13.9,16.57,24.16,21.42,4.87,2.31,7.53,5.71.59,10.46-10.8,7.4-15.3,18.43-16,30.83-.91,15.29-1.59,30.69-.92,46s3.32,30.33,14,42.43a54.74,54.74,0,0,0,10.13,9.54c10.45,7,15.08,17.37,18.16,28.91,2.86,10.74,5.18,22.06,14.69,29.23,13.76,10.38,27.69,20.67,44.92,24.85,11.5,2.79,28.24-4.17,29.62-14.67.76-5.76.78-12.2-1-17.59-6.28-18.56-9.65-37.79-14.62-56.64-2.07-7.88-5.73-15.46-9.52-22.74-6.53-12.52-9.45-26.19-13.43-39.51a90.27,90.27,0,0,1-4-20.7c-.61-11.32,10.16-22.4,21.54-23.8s20.48,2,28.38,10.1c3.67,3.73,8,6.87,12.08,10.15,5.37,4.29,11.76,4.46,18.18,4,8.27-.55,16.5-1.54,24.77-1.94,14.39-.69,24.9-7.81,32.83-19.28,5.21-7.54,4.59-15.69.41-23.16-6.52-11.67-8-24.15-6.82-37,1.13-12.33,8.56-21.75,25.11-17.6,9.91,2.49,19.5,6.24,29.36,8.93C70,76.47,83.69,76.49,97.2,75.69a22,22,0,0,0,13.46-6c10.85-11.41,21.62-23.31,26.25-38.79,1.94-6.48,1.52-13.74,1.67-20.66C138.69,5,138-.19,137.66-5.42"/><path class="cls-42" d="M-22.07,1085.36c-5.73-6.07-11.08-12.55-17.28-18.08a58.77,58.77,0,0,1-15.4-21.42c-2.13-5.11-3.82-10.87-1.65-16.59,2.24-5.91,8.89-10.15,15.59-7.49,12.74,5.06,26.08,7.55,39.49,9.31,10.72,1.42,20.92-1.19,26.66-11.5,7-12.54,17.23-21.37,28.82-29.4s18-19.41,17.9-34.23c-.1-13.81,3.76-26.81,9.37-39.48,6.28-14.15,5.41-22.69-4.94-33.81-9.41-10.11-14.13-22-13.68-35.89.31-9.63.06-19.1-3.88-28.36-6.27-14.74-25.29-32.71-46.12-30.72a66,66,0,0,0-27.34,9c-6.5,3.79-13.15,7.69-20.24,10-9.68,3.13-19.43,1.19-28.76-2.79-8.09-3.47-16.39-5.69-25.26-3.07-.82.24-1.84.11-2.5.55-11.76,7.73-25.36,10.82-38.47,15-9.61,3.08-16.79,8.8-20.58,17.85-7.33,17.5-20.63,28.59-37,36.9a72.83,72.83,0,0,0-12.11,7.59c-9.06,7.14-11.59,17.52-12.62,28.25-1.6,16.59,2.66,31.92,10.45,46.55A164.47,164.47,0,0,1-193,973.68a91,91,0,0,0,15.7,26.28c9.57,11.55,1.65,20.34-8.57,21.12-6.37.48-12.8.09-19.2.09-8.43,0-16.85-.12-25.27,0-5.23.1-10.46.5-15.67,1-7.43.72-14.87,1.39-22.24,2.55-12.62,2-21.71,9.51-28.79,19.67-9.36,13.42-18.56,26.94-27.83,40.42"/><path class="cls-42" d="M1041.92,1085.11a47.39,47.39,0,0,1,4.55-1.75c6.9-1.91,13.72-4.59,20.74-5.39,12.16-1.38,24.14-3.25,35.88-6.74,6.19-1.83,12.45-3.43,18.69-5.07,11.15-2.92,18-10.55,22.18-20.76,5-12.34,9.77-24.77,18.18-35.41a15.1,15.1,0,0,0,2.5-12.56c-1.75-8.22-8-12.3-17.54-8-3.34,1.5-6.14,4.24-9.14,6.47-10.53,7.82-18.52,7.87-29.31,1q-5.39-3.42-10.62-7.07c-8.87-6.18-18.67-8.23-29.33-7.09-7.56.8-15.17,1.28-22.74,2.07-4.9.52-9.75,1.51-14.66,2a44.82,44.82,0,0,1-23.29-3.92c-14.12-6.51-20.12,1.59-22.08,12.58-1.06,6,0,12.07,4.49,16.6,6.2,6.28,5.93,12.86,2.52,20.3-7.24,15.76-14.22,31.64-21.25,47.5a43.21,43.21,0,0,0-1.55,5"/><path class="cls-42" d="M362.58,1084.85c4-13.45,14.6-19.14,26.77-23.32,7.27-2.5,14.53-4.94,20.83-9.94,15-11.91,15.39-32.15,0-44.17C394.52,995.18,377,990.08,357.54,992a73.31,73.31,0,0,0-18.65,4.56c-6.92,2.64-10.73,8.7-13.2,15.52q-4.05,11.11-8.09,22.24c-4.48,12.27-14.42,16-26.28,17.24-10.3,1-17.59,4.77-19.45,14.15-1.24,6.29.07,13.09.24,19.66"/><path class="cls-42" d="M647.16-5.42C648.39,5,652.92,14.42,658,23.28c4.7,8.24,9.51,16.24,12.59,25.33a26.79,26.79,0,0,0,13,15.15c14.2,7.47,28.5,14.77,43,21.71,6.26,3,9.15.1,11.53-4s4.2-8.54,6.66-12.59C751.27,58.23,760,49.59,770,42.09c11.81-8.9,23.45-18.05,35.44-26.71,7.33-5.29,12.05-11.91,13.59-20.8"/><path class="cls-42" d="M-53.41-5.42c1.64,16.08,9.4,29,21.32,39.33C-27.72,37.72-22,36.72-16.5,36.1-6,34.9,3,29.94,11.74,24.81c14-8.17,19.84-3.53,28.83,4.19,6.48,5.55,13.1,10.78,21.27,13.58,7.73,2.65,15.52,4.08,23.77,2.11C97,42,103.28,29.59,104.43,21.9c1.46-9.68-1.77-18.37-4.18-27.32"/><path class="cls-42" d="M686.08,1085.11a15.55,15.55,0,0,1-3.52-1.3,41.21,41.21,0,0,0-23.27-7c-7.08-.08-14.16,0-21.23,0-7.31,0-10.81-4.75-8.56-11.61,1-2.93,2.31-5.74,3.51-8.6,7.57-18.13,1.57-31.17-16.22-39.35-6.45-3-11.08-1-14.53,6a114.83,114.83,0,0,0-7.08,17.68c-4.82,16.22-11.13,31.46-24.83,42.46-.53.43-.7,1.31-1,2"/><path class="cls-42" d="M919.09,1085.36c-4.39-11.69-14.4-15.94-25.29-18.61-6.79-1.67-13.79-2.5-20.71-3.62-13.92-2.27-25.65-9.19-36.9-17.19-3.66-2.59-7.35-5.15-11.13-7.56-4.31-2.76-8.95-2.78-13.63-1a53.88,53.88,0,0,0-24.3,17.65c-7.27,9.35-7.07,19.64-4.51,30.36"/><path class="cls-42" d="M694.67-5.42c5.15,9.1,5.65,19.29,7.26,29.29A50.2,50.2,0,0,0,707.44,39c2.78,5.27,10.81,6,17,3.56,9.36-3.62,20.32-17.61,18.8-28.77-.5-3.72-1.37-7.24-4.67-9-6.58-3.5-13.43-6.49-20.17-9.69"/><path class="cls-42" d="M541-5.42c3.07,13.39,10.88,22.9,23.24,28.84,10.57,5.08,21.63,5.53,32.85,3.43a142.36,142.36,0,0,0,19.7-5.07c8.9-3,14.3-9.08,14.24-19.11a63.9,63.9,0,0,1,1-8.09"/><path class="cls-42" d="M143.22,1084.85c-4.64-6.08-11.51-6-17.65-4.81-8,1.56-15.24-.43-22.8-1.7-12-2-23.6-1.84-33.39,7-.33.3-1.31-.12-2-.2"/><path class="cls-42" d="M555.16-5.42c3.35,17.25,18.73,26.65,37.4,21.21,7.77-2.27,15.62-4.63,20.68-11.64,2-2.8,3.42-6,5.11-9.06"/><path class="cls-42" d="M330.74-5.42c3.2,3.37,6.33,6.82,9.63,10.09S348,7.83,352,7.1c9.67-1.81,19.29-4,28.81-6.55,4.86-1.29,9.46-3.61,14.17-5.46"/><path class="cls-42" d="M-35.21-5.42A28.53,28.53,0,0,0-22.58,8.76c7.72,4.5,14.2,3,20.21-5.09C-.27.87,1.69-2,3.71-4.91"/><path class="cls-42" d="M573.87-4.91c7.07,6.79,14.15,3.81,21.22,0"/><path class="cls-42" d="M-20.55,360c-11,2.2-13.54,7-13.51,19.21,0,10.78.92,21.59,2,32.34.68,6.9,4.7,11.29,12,12.16,7.6.9,15.14,2.28,22.76,2.92,5.69.47,11.58.86,17.15-.09,8.71-1.47,11.32-5.62,9.54-14.46-2-9.69-4.29-19.33-7.08-28.8-3.1-10.54-10.12-17.5-21.14-19.7-7-1.4-14.15-2.4-21.23-3.58"/><path class="cls-42" d="M429.31,367.11c-4.07,1.62-4.75,4.29-2,7.55a117.07,117.07,0,0,0,10.12,11.09c8.42,7.72,18.79,6.16,28.74,4.95a31,31,0,0,0,12.55-4.55c4.76-3,4.55-6.36.62-10.46-4.28-4.46-9.91-6.29-15.68-6.42-11.33-.27-22.66,0-33.86-2.16"/><path class="cls-42" d="M264.53,373.17c-3.93,1.19-3,4.4-1.92,6.52,8.05,16,20.21,26.89,38.3,30.43,8,1.57,15.62-1.33,19.72-8.14,3.27-5.41,2.73-8.62-2.57-12.07a33.28,33.28,0,0,0-8.57-4c-14.78-4.36-29.63-8.49-44.46-12.7"/><path class="cls-42" d="M1014.62,377.21a9.6,9.6,0,0,0-1.51.52c-2.64,1.44-5.78,3-4.94,6.53,1,4.12,4.91,5.54,8.49,5.93a7.76,7.76,0,0,0,8-4.4c1.13-2.32-1.77-6.55-5.55-8a17,17,0,0,0-4-.56"/><path class="cls-42" d="M652.72,391.37c-5,1.56-7.22,5.19-8.72,10.07-2.22,7.22-5.32,14.17-7.94,21.27-1.79,4.85-4.41,9.69-4.77,14.68a22.21,22.21,0,0,0,3.46,13c3.29,5,8,9.15,12.45,13.25,9.94,9.13,20.69,17.35,32.89,23.12,6.93,3.28,14,6.58,22.16,6.86,7.55.25,13.2-2.68,17.14-8.74a93.26,93.26,0,0,1,26.72-27.43c4.49-3,8.61-7.17,10.26-13,2.47-8.7-.48-16.1-5.66-22.71-5.41-6.91-12.7-10.26-21.67-10.23-7.07,0-14.27.07-21.19-1.15a43.31,43.31,0,0,1-15.6-6c-9.31-6-19-10.54-29.94-12.42a80.66,80.66,0,0,0-9.09-.55"/><path class="cls-42" d="M864,402.49c-6.47,4.5-7.71,10.68-3,15.16,3.25,3.11,6.64,2.14,8-2.54,1.21-4,1.47-8.91-4.51-12.62"/><path class="cls-42" d="M670.91,430.79c-3.37,1.69-7.47,2.66-9.93,5.22-3.78,3.92-2.62,8.93-.18,13.49a42.15,42.15,0,0,0,21.26,19.15c4.31,1.84,8.81,3.23,13.13-.43,4.73-4,5.35-9.08,4-14.68-3-12.61-11.75-19-23.75-21.74-1.35-.31-2.69-.67-4-1"/><path class="cls-42" d="M233.19,459.1c-6.26,1.21-10.31,5.21-13.13,10.62-4.1,7.89-8.53,15.65-12,23.8A36.57,36.57,0,0,0,207,520.23c4.24,12.38,9.24,24.52,16.67,35.37,6.89,10.06,17.3,13.14,28.71,11.46,7.25-1.07,14.4-3.66,21.22-6.48,10.42-4.32,17.95-12.36,24.85-21.09,8.14-10.28,16.51-20.35,21.22-32.87,5-13.19.56-37.24-16.22-42.42a20.87,20.87,0,0,0-6.55-1c-8.94.2-17.87,1-26.79.82-5.41-.1-10.78-1.63-16.18-2.37-6.73-.93-13.48-1.71-20.22-2.55"/><path class="cls-42" d="M436.38,462.13c-16.15,3.2-24.27,19.8-22.62,34.86,1,8.87,6.39,15.15,15.07,17.62,9.66,2.75,19.53,4.76,29.28,7.18,7.17,1.78,14.1,4.44,21.74,4.13a35.3,35.3,0,0,0,17.67-5.2c8.49-5.3,9.69-14.23,2.48-21.11-6.74-6.42-14.18-12.1-21.12-18.32-3.27-2.93-5.94-6.53-9.17-9.52-7.95-7.38-17.57-10.18-28.27-9.65-1.52.08-3,0-4.55,0"/><path class="cls-42" d="M253.41,3.18c-9.24,1.44-16.81,5.72-20.06,14.71-2.95,8.15-4.82,16.73-6.63,25.24a97.12,97.12,0,0,0-2,17.17c-.31,10.45,4.87,15,15.58,15.75,13.74.94,26.52-2.25,38.92-7.68,7.82-3.43,15.73-3.38,23.76-1,.71.21,1.37,1,2,.92,1.2-.09,2.77-.26,3.42-1a3.55,3.55,0,0,0,0-3.38c-3.38-4.83-6.53-10-10.64-14.1-6.61-6.66-9.69-15-13.1-23.33-2-4.87-4.1-9.87-7.13-14.1-5.73-8-14.23-10-23.64-9.18"/><path class="cls-42" d="M29,469.21c-14.26,4.06-19.83,15.2-22.66,28.32-.91,4.24,3.46,9,9,10.55a32.53,32.53,0,0,0,8.58,1.49c16.58-.12,26.91-13.29,23.68-29.23-1.43-7.09-6.16-10.59-13.57-11.12-1.51-.1-3,0-4.55,0"/><path class="cls-42" d="M72.45,6.21c-5.13,1.7-9.05,4.21-8.65,10.62s6.35,11.62,13.71,11.62A10.33,10.33,0,0,0,87.62,17.84c0-6.43-5.38-11.58-12.13-11.63H73"/><path class="cls-42" d="M856.92,500.55c-5.9,1-11.88,1.67-17.67,3.1-12.57,3.1-23.37,9.51-30.69,20.26-4.48,6.57-6.37,14.56-6.68,22.63a154.29,154.29,0,0,0,.06,19.71c.87,9.77,6.15,14.48,15.49,11.44,8.05-2.62,15.56-6.9,23.32-10.42,6.39-2.89,12.57-6.65,19.27-8.32a41.77,41.77,0,0,1,18.57-.5c9,2,15.7-.94,20.64-7.47a75.25,75.25,0,0,0,13.3-27.69c1.08-4.44-.92-8.95-5.57-12.12-7.18-4.89-15.46-7.09-23.78-8.45-8.48-1.37-17.16-1.5-25.75-2.17"/><path class="cls-42" d="M732.58,540c-6,1-11.74,2.74-15.08,8.14-3.79,6.11-6.91,12.79-6.57,20.16,1,21.76-5.74,41.79-13.28,61.65-1.88,5-3.29,9.82-3,15.19.14,3.26.57,6.28,4.13,7,3.08.59,5.56-1.18,7-4a71.38,71.38,0,0,0,4.51-9.11c3.19-8.82,9-14.43,18.24-16.72,10.76-2.66,17.27-9.5,19.3-20.65.9-5,3-9.72,3.89-14.69,1.59-8.74,4.95-17.09,4.78-26.27-.15-8-3.69-13.62-10.34-17-3.95-2-8.69-2.51-13.07-3.69"/><path class="cls-42" d="M403,47.66c-9.6,1.73-13.7,8.55-15.64,17.19-1.62,7.28,3.09,12.84,10.58,12,8.84-.94,16.82-4.33,21.13-12.61,5.21-10,.83-15-9-16.57a42.21,42.21,0,0,0-6.56-.05"/><path class="cls-42" d="M652.72,552.1c-16.45,3.55-19.22,20.25-17.16,31.84,1.51,8.49,4.56,16.13,12.6,20.74s17.41,2,19.11-9.63c.65-4.45.23-9.09.07-13.63-.19-5.4-.83-10.78-.93-16.18-.17-8.9-4.2-13-13.19-13.14"/><path class="cls-42" d="M20.9,553.11c-2.19,1.18-4.74,2-6.46,3.66-1.27,1.24-2.55,4.29-1.9,5.29a9.44,9.44,0,0,0,5.85,4c5.13.69,8.93-2.22,11.56-6.42,1.53-2.45-1-6-4.51-6.52a28.64,28.64,0,0,0-4,0"/><path class="cls-42" d="M321.14,574.34c-10.95,3.88-21.73,8.4-32.9,11.48-17.36,4.78-35,8.56-52.52,12.79-18.89,4.56-34,14.18-42.41,32.37-4,8.63-7.85,17.36-11.09,26.29-5.27,14.57-1.68,22.12,9.55,30.77,4.21,3.24,8.77,6,13.1,9.14,7.73,5.53,9.44,13.39,1.45,20.12-6.53,5.5-13.79,10.13-20.63,15.27-8,6-16,11.89-23.72,18.24-8.08,6.68-9.79,15.52-6.57,25.19,4.72,14.19,10.47,27.93,19.66,40C184.7,828.58,192,842.64,200,856.29a38.91,38.91,0,0,0,11.61,12.5c5.6,3.71,14.25.1,19.53-6.86,3-3.95,6-7.94,8.57-12.14,5.17-8.34,13.35-12,22.3-12.37a172.63,172.63,0,0,0,37.9-5.31c10.51-2.75,20.13.52,29.86,4,4.51,1.59,9.41,3,14.11,2.94,10.54-.21,17-10.82,11-20-3.2-4.88-7.34-9.14-11-13.71-5.58-6.89-11.57-13.51-16.57-20.8-5.35-7.8-5.13-16.44-.57-24.66,4.48-8,9.28-15.93,14.17-23.74a24.34,24.34,0,0,1,5.54-6c4.1-3.23,6.18-2.79,9,2,2.6,4.41,4.91,9,7.09,13.64,4,8.51,10.7,13.22,19.7,15.82,6.66,1.92,12.27,0,17.66-2.84a39.08,39.08,0,0,0,11.1-8.54c12.43-14.15,28.88-20.08,46.62-23A223.3,223.3,0,0,1,495,723.82c16.6,0,31.14,12.45,36.39,25.92,4.51,11.6,2.21,23.17.16,34.9-1.33,7.61-2.6,15.72-1.33,23.17,1.87,10.93,9.77,18.12,20.42,21.15,8.24,2.34,16.87,3.27,25.22,5.25,8.84,2.09,18.55,3.78,21.56,14.15,1.73,5.92,2.9,12.63,1.92,18.59-1.9,11.61-.15,22.14,5.94,31.84,5.24,8.32,10.81,16.46,19.09,22.34,9.3,6.62,19.86,9.76,30.88,10.91,9.7,1,19.23.09,28.38-4.72,8.9-4.68,15.39-10.76,18.67-20.37,2.51-7.37,7.64-11.6,15.57-13.34,7.24-1.58,14.61-3.45,19.87-9.83,2.88-3.5,3.36-11.27-.11-14.26-3.25-2.81-6.61-5.52-9.57-8.62-11.05-11.54-21.57-23.6-33-34.71A288.64,288.64,0,0,0,667.26,803c-4.18-3.14-9.59-4.72-14.57-6.67-3.94-1.55-7.69-.61-11.14,1.89a3,3,0,0,1-2.88,0,2.89,2.89,0,0,1,0-2.86c8.69-8.63,5.17-18.15,2.57-27.89-2-7.55-4.11-15.25-3.11-23.22s2.17-16.21,3.54-24.26c2.82-16.55,2.07-32.8-4.13-48.51-3.63-9.22-11.66-12.57-20.67-14.16a78.37,78.37,0,0,1-28.36-10.54c-10.88-6.8-23.2-10.32-35.27-14.4-5.05-1.71-10.44-4.33-14-8.09-13.35-13.93-30.08-21-48.2-25.58-10.57-2.68-21.06-2.14-31.87-.27-13.21,2.29-26.55,1.56-39.93-1.08-15.85-3.12-31.5-6.75-47-11.26a32,32,0,0,0-9.58-1.49c-12,.28-23.14-2.14-33.43-8.57-2.05-1.28-5-1.12-7.52-1.63"/><path class="cls-42" d="M1001.48,579.4c-12.48,4-22.45,12.35-32.75,19.86-12.57,9.15-24.57,19.15-36.43,29.24-9.84,8.38-21.3,14-32.44,20.09-10.68,5.88-20.82,12.44-29.27,21.3-6.7,7-9.77,15.46-10.24,25.25-.8,16.79,4.32,31.9,11.78,46.49a33.29,33.29,0,0,0,5.07,7.55c5.93,6.37,11.81,6.84,18.63,1.55C921,731.2,944.27,709.66,964.59,685c6.94-8.41,16.22-12.09,26.77-13.73,15.3-2.37,29.47-7.37,40.48-19.1,7.65-8.16,11-17.88,11.62-28.84.53-9.68-.32-18.83-7.58-26.31s-15.25-13.9-25.33-17.06c-2.66-.83-5.7-.43-8.56-.6"/><path class="cls-42" d="M776.05,65.85c-9.09,5.32-11.16,9.78-8.53,19.7a60.49,60.49,0,0,0,4.57,12.61c7.3,13.92,15,11.41,25.16,5a16.35,16.35,0,0,0,3.55-3.5c3.75-4.46,4.55-9,.9-13.54A163.6,163.6,0,0,0,785,68.53c-2-1.81-5.59-1.83-8.46-2.68"/><path class="cls-42" d="M1001.48,602.65c-10.62,2.32-20,6.83-27.28,15.17-4.52,5.22-8.55,10.84-10.06,17.7-1.78,8.07-.9,10.81,7.59,14,11.64,4.31,23.76,5.66,35.82.71,12.57-5.16,19.84-14.47,21.67-27.83,1-7-6.77-16.83-14.62-18.59-4.08-.91-8.4-.77-12.61-1.11"/><path class="cls-42" d="M319.12,79.5c-7.57,7-6.49,15.7-3.95,24.23,2.47,8.32,8.64,12.07,16.59,12.45,10.1.49,24.22-8,25.55-17.94.65-4.8-.78-7.17-4.36-8.54-7.47-2.84-15.1-5.24-22.73-7.63-3.46-1.09-7.06-1.73-10.6-2.57"/><path class="cls-42" d="M259.47,621.86c-8.09,2.86-16.22,5.6-24.24,8.63a21.72,21.72,0,0,0-12.65,12.6c-2,4.92-.83,9.15,2.49,13.16,4.45,5.39,10.59,8,16.74,10.51,8.83,3.53,16.29,9,23.77,14.68a65.15,65.15,0,0,0,9.58,5.59c6.06,3.11,12.33,2.2,15.48-3.6,5.21-9.58,9.76-19.66,10.72-30.75,1.19-13.58-9.22-23.84-21.64-28.88-6.5-2.64-13.13-1.68-19.74-1.94"/><path class="cls-42" d="M927.69,656.23c-13.48,3.67-26,9.37-36.92,18.18-9.11,7.31-14.23,17-14.92,28.33a25,25,0,0,0,6.34,18.19c4.5,5.08,14.07,5,20.29,1.64,6.89-3.72,11.94-9.35,17-14.86,9.07-9.8,16.34-20.88,20.22-33.82a43.26,43.26,0,0,0,1.52-10.59c.21-5.11-1.88-7-7-7.07-2,0-4,0-6.07,0"/><path class="cls-42" d="M551.63,670.38c-3,.84-6.13,1.51-9.09,2.56-8.64,3.06-10.8,7.84-7.85,16C541,706.47,548.07,723.7,556,740.51c2.88,6.16,8.63,11.49,16.41,12.14a30,30,0,0,0,11.57-1c15.33-5,27.74-13.9,34.84-28.72s1.74-32-13-39.42a123.84,123.84,0,0,0-39.44-12c-4.68-.63-9.43-.72-14.15-1.06"/><path class="cls-42" d="M598.63,108.82c-6.78,1.9-9.46,7.63-12.74,13.07-2.84,4.71-6.6,8.86-10,13.2-2.82,3.58-6.5,6.71-8.42,10.71-3.74,7.8,2.46,16.7,11.48,18,3.46.5,6-1.85,7.08-5.42,2.88-9.21,7.59-16.9,16-22.45a15.75,15.75,0,0,0,6.85-12.42c.53-7.81-2-12.38-9.75-14.67"/><path class="cls-42" d="M584.48,695.15c-9.66,1.93-14.14,7.52-14.15,17.69,0,1.85-.15,3.72,0,5.56.73,7.62,6.93,12.31,14.65,10.17a24.39,24.39,0,0,0,15.09-11.72c5.11-8.83-.29-19.42-10.56-21.19-1.5-.25-3-.34-4.54-.51"/><path class="cls-42" d="M755.83,700.71c-8.4,1.17-14.85,6-21.26,11.07-8.09,6.41-17.67,9-27.77,10.19a51.6,51.6,0,0,0-8.08,1.52c-10.33,2.9-14,9.36-12.19,20.19,2.08,12.79,8.21,22.52,20.31,27.71a31.72,31.72,0,0,0,17.69,2.38,59.59,59.59,0,0,1,19.64.9A37.94,37.94,0,0,0,773.56,769a49.87,49.87,0,0,0,19.58-23.85c6.45-16.4,1.84-29-13.54-37.9-7.23-4.19-15.28-5.17-23.26-6.54"/><path class="cls-42" d="M1084.38,112.36c-7.81,1.71-14.56,5.07-18.16,12.65a18.71,18.71,0,0,0,3,20.66c3.41,3.66,12.8,4.4,18.69,1.12,7.14-4,12.34-9.3,14.62-17.25,2.6-9-3.38-17.17-12.63-17.18-1.69,0-3.37,0-5.06,0"/><path class="cls-42" d="M913.53,124.49c-2.69,1.68-5.91,2.88-8,5.14-7.33,8-15.61,13.71-26.31,16.84-11,3.23-20,10.73-28.87,18Q844,169.64,837.72,175c-10.11,8.77-16.14,19.92-19.25,32.84-1.83,7.63-4.13,15.14-6,22.76-3.29,13.33-.29,21.26,11.11,28.77q16.53,10.86,33.36,21.23c12.33,7.64,24.65,7.82,36.89-.45,9.37-6.34,18.83-12.54,28.31-18.71,7-4.58,10.61-11.81,14.65-18.71,3.85-6.59,7.2-13.56,11.75-19.62,6-8,13-15.27,19.58-22.84,1.33-1.53,2.77-3,4-4.57,4.07-5.13,4.29-10.66,1-16.13-2.76-4.54-6.16-8.69-9-13.19-5.17-8.18-9.48-17-15.35-24.63-8.59-11.13-19.92-18-34.72-17.3"/><path class="cls-42" d="M244.31,754.28C232.58,757,224.05,764,218.6,774.54c-3.23,6.28-3.93,13.31.59,19.05,4.68,5.92,11.68,7.13,19.05,5.69,9.12-1.79,16.8-5.44,20.77-14.65,2.69-6.26,2.62-12.88,1.77-19.2-1.08-7.91-6.57-11.15-16-11.15"/><path class="cls-42" d="M701.24,129.54c-6.46,2.26-8.59,7.24-9.73,13.63-2.13,11.92,1.23,23,3.57,34.41a155.56,155.56,0,0,1,2.56,20.2c1,14.19,5.26,26.61,17.76,34.87,8.62,5.69,17.64,5,25.8-1.48,13.14-10.4,21.32-24.14,27.26-39.46,3.78-9.75,6.33-19.73,6.11-30.33-.19-9.65-5.32-17.91-14.74-21.11a256.25,256.25,0,0,0-27.78-7.59c-9.94-2.15-20-4.06-30.3-3.14"/><path class="cls-42" d="M913.53,159.87c-4.38.67-8.77,1.28-13.14,2-8.43,1.46-16.93,2.65-25.25,4.62-10,2.38-17.07,9.38-23.22,17.14-5,6.32-4.44,14-2.95,21.16,1.87,9,1.9,17.93-1.79,26.25-4.77,10.75-2.09,18.94,6.71,25.83,6.55,5.13,13.16,10.29,22.23,9a44.3,44.3,0,0,0,9.59-2.52q10-3.76,19.72-8.06c12.29-5.38,20.72-14.43,24.74-27.28,2.73-8.7,5.77-17.38,7.47-26.3,2.71-14.24-1.92-26.88-11.09-37.77-1.48-1.76-4.54-2.28-7-3.09a40.75,40.75,0,0,0-5.54-1.06"/><path class="cls-42" d="M408.08,177.05c-11.76,2.6-15.1,12.74-11.19,23.78,2.58,7.28,5.88,14.06,11.21,19.67,7,7.35,19.63,5.52,25.35-2.94,4.49-6.67,3.86-13,.91-19.78a38.29,38.29,0,0,0-17.25-19.09c-2.44-1.29-5.66-1.13-8.53-1.64"/><path class="cls-42" d="M-6.4,817c-10.44,3.88-20.69,8.47-31.4,11.41-9.31,2.56-19.13,3.38-28.75,4.73-10.76,1.5-21.67,2.2-32.32,4.22-12,2.28-16.42,7.45-17.24,21.59-.32,5.41-.38,10.93-1.62,16.15-2.5,10.51-9.32,17.94-18.56,23.29-2.75,1.6-5.5,3.22-8.08,5.07-7.43,5.33-9.42,12.4-7.24,21.24.77,3.14-.06,6.72-.42,10.07-.16,1.55-1.33,3-1.38,4.55-.09,3.22-1,6.71,2.43,9.13s5.9.33,8.6-1.06c3.67-1.89,7.11-1.91,11.17-.61,15,4.8,28.16,12.28,38.88,23.88,11.29,12.21,14.6,13.51,30.34,2,5.71-4.15,11.81-7.84,19.18-7a55.43,55.43,0,0,1,13.13,3.51,79.55,79.55,0,0,1,12.13,6c10.08,6,19.56,5.13,29.4-1,16.54-10.26,29.91-23.47,38.2-41.1a129.29,129.29,0,0,0,8.56-25.75c1.69-7.33-1.37-14.52-4.44-21.14-5.07-10.93-10.4-21.77-16.2-32.33a133.91,133.91,0,0,0-12.11-17.68c-3.06-3.91-7.17-7-10.48-10.72C9.66,819.08,2.73,816-5.89,817"/><path class="cls-42" d="M853.38,817.47c-5.29,1-10.72,1.31-15.19,5-7.73,6.41-8.16,15.25-6.77,23.74,1.15,7,4.26,13.78,7.44,20.2,3.65,7.36,10.47,10.81,18.57,11.13,9.23.36,15.54-4.43,16-13.6a137.93,137.93,0,0,0-1.54-30.27c-2.42-13.44-7.61-15.35-18-16.22"/><path class="cls-42" d="M90.65,821c-1.69,1.68-4.16,3.07-4.92,5.1A70.3,70.3,0,0,0,81,855.38c.37,5.81,3.12,10.08,7.57,13.69,6.4,5.17,14.11,6.82,21.8,8.4a6.93,6.93,0,0,0,5.44-2c5.36-5.75,7.54-13,8.64-20.64.88-6.08-1.52-11.28-5.55-15.63a72.89,72.89,0,0,0-22.23-16.66A32.37,32.37,0,0,0,91.15,821"/><path class="cls-42" d="M435.37,821c-10.51,3.16-19.34,8.9-25.16,18.26-3.75,6-5.91,12.82-4.14,20.15,1.8,7.48,8.37,10.77,16.18,9.74,13.41-1.78,16.69-12,19.53-22.42a62,62,0,0,0,2-17.64c-.12-5.43-1.15-9-7.9-8.09"/><path class="cls-42" d="M923.64,825.05c-3.2,1.18-6.56,2.06-9.57,3.6-6,3.08-9,8.89-7.61,14.09,1.59,6.15,6.49,9.59,13.64,9.6,9.5,0,13-3.63,13.19-13.14.12-6.08-.58-11.54-7.13-14.12a5.87,5.87,0,0,0-2,0"/><path class="cls-42" d="M783.12,851.33c-3.09,1.62-6.1,3.54-5.49,7.57.72,4.74,2.79,9,7.07,11.54a4.52,4.52,0,0,0,3.93-.48c4.06-2.93,3.73-7.6,2.87-11.5-.79-3.6-3.24-7-7.87-7.13"/><path class="cls-42" d="M948.91,866.5c-6.76,2.09-7.73,8.38-8.38,13.67a177.25,177.25,0,0,1-10.21,42.47c-3.67,9.52-5.41,19.41-3.29,29.82.91,4.53,1.32,9.81-.15,14-1.75,5-5.67,9.27-8.83,13.73-2,2.83-4.5,5.31-6.5,8.14-2.47,3.48-2.12,8.52.47,10.59,2.21,1.77,8,1.34,10.59-1a38.79,38.79,0,0,0,10.73-15.1,41.55,41.55,0,0,1,12.46-17.32,151.17,151.17,0,0,0,14.69-14.61c7-7.8,15.71-12,25.81-14.17,8.83-1.87,17.59-4.12,26.29-6.56a40,40,0,0,1,29.83,3.09c8.73,4.41,17.85,5.72,27.28,2.95a37.18,37.18,0,0,0,10.06-4.56c4.8-3.21,6.87-11.64,4.54-18.08a79.25,79.25,0,0,0-6.06-13.13c-4.82-8.22-10-16.25-15.11-24.29-7.18-11.25-12.2-11.17-24.2-8.86-13.52,2.62-26.75,6.9-40,11-11.12,3.42-20.63.69-29.91-5.55-5.81-3.92-12.37-6.45-19.65-6.15"/><path class="cls-42" d="M648.17,867c-6.13,3-6.59,8.51-5.95,14.14a7.1,7.1,0,0,0,5.95,6.57c3.44.62,5.47-1.33,7.08-4,3.51-5.88-.07-15-6.58-16.68"/><path class="cls-42" d="M-43.8,880.65c-1.35.34-2.7.65-4,1-8.33,2.25-11.57,9.58-6.41,16.56,3.7,5,8.32,9.92,13.61,13,10.17,6,21.09,10.68,31.72,15.89,13.18,6.45,31-7.36,31.36-19.21.39-11.38-8.21-17.56-17.73-17.91-10.57-.38-20.38-1.88-29.88-6.72-5.52-2.81-11.87-3.18-18.13-2.66"/><path class="cls-42" d="M479.85,189.18c-11.37,4-16.18,10.19-15.65,20.22.34,6.4,4.15,11.11,8.1,15.65a64.65,64.65,0,0,0,7.08,7.06c7.48,6.26,11.2,14.48,13.15,23.79a54.22,54.22,0,0,0,2.5,7.58c1.25,3.34,3.1,6.17,7.06,6.56a7.91,7.91,0,0,0,8.46-5.09,54.71,54.71,0,0,0,4-14.62c.89-8.88.85-17.84,1.16-26.77.44-12.54-9-31.27-26.28-33.83-3-.44-6.06-.38-9.09-.55"/><path class="cls-42" d="M1030.8,888.74c-2,1-4.3,1.72-6,3.13-1.14,1-2.4,3.54-1.91,4.32,1,1.6,3.09,2.64,4.89,3.6.79.41,2,.13,3,.06,3.71-.28,7.86-3.42,7.51-6.05-.52-3.91-3.59-4.86-7-5.06"/><path class="cls-42" d="M322.15,918.05c-10.28,2.87-20.66,5.43-30.78,8.75a26.47,26.47,0,0,0-10,6.54c-3.44,3.47-5,8.07-2.63,13a13.51,13.51,0,0,0,12.11,8c3.52.17,7.08-.89,10.61-.84a119.78,119.78,0,0,1,17.17,1c6.42,1,12.75,2.09,19.23.89,8.16-1.51,16-7.77,17.25-16.66,1.84-13.14-4.17-20.42-17.76-20.72-4.88-.11-9.77,0-14.66,0"/><path class="cls-42" d="M-8.42,199.29c-6.07,1.69-12.56,2.5-18.11,5.23-15.54,7.63-31.14,15.3-42.59,29.11-10.93,13.18-9.48,31.56-2.46,45.52,8.43,16.77,22.92,23,40.91,24.44,20.26,1.67,37.81-5.32,55.13-14.27,8.25-4.25,10.86-11.86,10.84-19.77,0-12.67,4.8-23.19,11.37-33.36,3-4.6,5.15-9.54,4.51-15.16-.72-6.5-5.44-9.24-11.09-10.56C33.4,208.9,26.57,208,19.9,206.3c-6.14-1.53-12.11-3.78-18.23-5.43a92.42,92.42,0,0,0-9.58-1.58"/><path class="cls-42" d="M539.49,952.42c-7.44,1.67-13.79,5.44-19.72,10.1-8,6.3-16.68,11.94-24.06,18.92-4.56,4.31-7.95,10.26-10.64,16-3.91,8.39-9,15.56-16.35,21.13s-11.39,12.71-10.65,22.26c.42,5.54,3.15,9,8.62,8.46a259.63,259.63,0,0,0,28.3-4.53c12.36-2.77,24.53-3.21,36.94-.46,13.31,3,31-8.85,34.3-22.69a34.8,34.8,0,0,0,1-9.08c-.36-12.27,1.11-24.35,3.08-36.4,1.51-9.22-7.43-21.12-17.18-22.68-4.32-.7-8.75-.74-13.13-1.08"/><path class="cls-42" d="M296.88,217.49c-6.49,1.86-12.17,4.19-14.83,11.56s3.32,14.6,9.77,14.6c4.21,0,8.44-1.16,12.63-1.92,3.06-.56,6-1.62,9.11-1.93,5-.51,9.24.31,13.27,4.35,9.16,9.16,19.52,16.83,32.73,19.29a37.32,37.32,0,0,0,8.58.48c2.74-.13,4.63-1.55,5.65-4.44,1.16-3.25-.46-5.3-2.67-6.51A104.17,104.17,0,0,0,356,245.89c-7.79-2.73-15.81-4.79-23.72-7.18-4.36-1.32-8.5-2.93-11.68-6.52-2.28-2.58-5.07-4.69-7.52-7.13-4.36-4.35-9.71-6.58-15.68-7.57"/><path class="cls-42" d="M631.49,971.63c-10.06,3.57-11.78,7.94-7.09,17.7,4.22,8.77,10.44,15.75,17.55,22.39,7.9,7.39,14.51,16.14,21.92,24.07,10.19,10.91,22.41,18.92,36.92,22.56a25,25,0,0,0,14-1c9.25-3.47,11-13.63,2.05-19.93-7.35-5.21-15.1-9.86-22.7-14.72-8.21-5.25-13.82-12.58-18.28-21.19-7.47-14.43-19.57-23.66-34.82-28.77-2.83-1-6-.76-9.07-1.1"/><path class="cls-42" d="M-18.53,221.53c-14.84,3-26,11.79-36.48,22.16-14.26,14.08-7.77,32.22,5.66,41,16.87,11,45.66,5.86,57.43-10.22,3.2-4.37,5.07-10.17,6-15.58,1.31-7.33,2.36-14.92-1.26-22.23-4-8.14-11.3-11.69-19.29-14-3.67-1.06-7.72-.8-11.59-1.14"/><path class="cls-42" d="M109.86,991.85c-10.3,2.08-18.87,7.24-24.11,16.26-5.11,8.78-5.47,17.15,2.43,23.6a15,15,0,0,0,6,2.55c18.62,4.29,29.81-3.43,31.32-22.7.23-3,1-6.21.39-9.07-1.87-8.62-5.14-10.64-15.55-10.64"/><path class="cls-42" d="M87.62,225.58c-8.4,2.52-11.56,9.85-15.14,16.69-9.77,18.64-3.43,35.09,7.71,50.42,3.2,4.4,8.08,7.83,14.5,6.18,7.7-2,12.53-7.36,13.39-14.69,1-8.12.19-16.5-.34-24.73a116.07,116.07,0,0,0-2.48-15.67,27.61,27.61,0,0,0-8-14.72c-2.66-2.57-5.48-3.95-9.15-3.48"/><path class="cls-42" d="M1062.14,998.93c-6.07,1.85-12.36,3.18-18.14,5.69-7.32,3.16-12.5,9-16.24,16-5,9.45-10.43,18.72-15,28.36a100,100,0,0,0-6.55,18.68c-1.3,5.23,2,8.1,6.94,7,18.87-4,37.82-7.75,56.58-12.24,14.31-3.42,26.86-11,38.85-19.24,7-4.8,10.38-11,1.08-20-5.56-5.4-11.37-10.54-17.17-15.69-8.54-7.59-18.81-9.42-29.81-8.6"/><path class="cls-42" d="M171.52,1022.18c-6.83,4.72-8.38,8.93-5.05,13.64a6.85,6.85,0,0,0,9.1,1.53c3.62-2.75,4.18-6.68,3.42-10.6-.66-3.41-3.37-5-7-4.57"/><path class="cls-42" d="M358.54,1022.18c-2.86,1.51-6.1,2.59-8.51,4.64-4.56,3.88-5.23,9-2.61,14.06,2,3.79,8.84,7.67,13.11,6.46,8.86-2.51,17.57-5.57,26.3-8.53a12.57,12.57,0,0,0,4-2.51c2.19-1.91,2-3.9.06-6.06-4.49-5-10.8-5.73-16.74-6.92-4.92-1-10.08-.81-15.13-1.14"/><path class="cls-42" d="M996.43,235.69c-6,1.79-12,3.11-17.23,7-9.09,6.8-13.77,16-15.61,26.86a44.66,44.66,0,0,0-1,8.58,20,20,0,0,0,19.64,19.21c16,.42,28.05-7.93,34.39-23.75a43.57,43.57,0,0,0,3.52-18.71c-.53-10.36-6-19.53-19.2-19.21-1.35,0-2.7,0-4.05,0"/><path class="cls-42" d="M1058.09,1035.82l-1.51,3c.84.17,1.93.76,2.48.43,2.22-1.33.63-2.42-.46-3.47"/><path class="cls-42" d="M991.37,248.83c-8,3.22-13.6,8.32-13.65,17.69,0,8.82,4.4,13.46,13.14,12.54,12.7-1.33,19-14.69,15.74-22.67-2.11-5.09-4.82-7.43-10.17-7.56-1.52,0-3,0-4.55,0"/><path class="cls-42" d="M1083.37,252.87c-15.48,4.79-21.34,17.56-25.67,31.38-1.09,3.47-1.76,7.61-.94,11,2.67,11.19,10.85,13.72,20.48,9.5,11.19-4.89,16.34-15.21,19.56-26.2,1.28-4.35.76-9.45.09-14.07-1-7.19-5.87-10.91-13-11.65"/><path class="cls-42" d="M23.93,325.66c-5.39.84-10.77,1.84-16.18,2.49-8.24,1-16.5,2.33-24.76,2.4-8.76.06-17.52-1.6-26.29-1.76-13.92-.26-21.83,9.88-21.28,21.13.58,11.95.77,23.92,1,35.89a172,172,0,0,1-2.89,36.41c-2.7,14.29.45,27.67,8.41,39.95a57.61,57.61,0,0,1,5.54,11.11c2.43,6.53.64,11.41-5,15.13-1.83,1.21-3.72,2.35-5.56,3.55-8.54,5.54-10.82,14-9.42,23.22,1.44,9.47,7.56,15.66,17,18.22,3,.83,6.06,1.7,9.1,2.52,7.69,2.08,10.21,6.73,8.65,14.68-2.61,13.21-10,23.85-17.81,34.31a52.45,52.45,0,0,1-7,7.11c-6.93,6.32-15.1,5.17-23.22,3.5-3.44-.7-6.69-2.44-10.14-2.88-7.07-.91-13,2.08-16.66,9.5-7.5,15.06-8.68,28.29,3,42,2.81,3.28,5.38,6.75,8.11,10.09,7.21,8.82,17.48,12.07,27.81,15.13,6.85,2,13.87,3.51,20.69,5.65,15.1,4.72,26.54-1.63,36.46-12.13C-7.65,653.52-4.83,641.8-1.78,630,2,615.47,6.57,611.87,18.38,608.74c8.88-2.36,17.54.23,26.28,1.4,5.84.79,11.86,1.51,17.67.93,10-1,14.63-8.39,17.7-17,1.38-3.86,2.92-7.68,4-11.63,2.81-10.25,10-16.33,19.29-20.12,8.14-3.33,16.21-6.6,22.7-12.73,8.4-7.93,15.57-16.73,18.15-28.31,1.76-7.88.77-15.41-5.53-21.18-8.81-8.06-18-15.69-26.7-23.86-5.72-5.38-10.63-11.62-16.32-17a51.47,51.47,0,0,0-10.56-7.12c-11.56-6.42-18.36-16.32-21.7-28.86-2.2-8.25-4.22-16.56-6.62-24.75-2.54-8.68-.13-16.7,2.54-24.79,2-6,5-12.06,5.33-18.2.74-13.92-2.82-27.73-22.48-28.8l-17.7-1"/><path class="cls-42" d="M611.27,339.81c-6.66,4.63-7.56,13.12-2,20.18a21.22,21.22,0,0,0,5.05,4.54c3.71,2.4,8.13.81,8.37-3.5a58.56,58.56,0,0,0-1.45-15.13c-1-4.76-4.59-6.75-9.49-6.09"/><path class="cls-42" d="M536.46,973.65c-8.59,4.05-17.45,7.63-25.69,12.29a17.48,17.48,0,0,0-9.27,16.53c.17,6,2.66,10,8.17,12.12,7,2.76,14.42,3.14,21.72,2.38a14.26,14.26,0,0,0,12.12-9.46,62,62,0,0,0,4.65-22.74c0-8.42-3.52-12.11-11.19-11.12"/><path class="cls-43" d="M295.14,514.77v17.07c0,21-10.13,32.43-30.76,32.43h-9.75v49.32H234V482.34h30.37C285,482.34,295.14,493.77,295.14,514.77Zm-40.51-13.68v44.43h9.75c6.56,0,10.13-3,10.13-12.37V513.46c0-9.38-3.57-12.37-10.13-12.37Z"/><path class="cls-43" d="M353.51,613.59c-1.12-3.36-1.87-5.44-1.87-16.12V576.85c0-12.2-4.13-16.7-13.5-16.7H331v53.44H310.39V482.34h31.12c21.38,0,30.57,9.92,30.57,30.18v10.31c0,13.5-4.31,22.32-13.5,26.63,10.31,4.32,13.68,14.26,13.68,27.94v20.25c0,6.38.2,11.07,2.26,15.94ZM331,501.09V541.4h8.07c7.69,0,12.37-3.38,12.37-13.87V514.58c0-9.37-3.19-13.49-10.5-13.49Z"/><path class="cls-43" d="M389.77,512.33c0-21,11.07-33,31.31-33s31.32,12,31.32,33v68.25c0,21-11.06,33-31.32,33s-31.31-12-31.31-33Zm20.63,69.56c0,9.39,4.13,12.93,10.68,12.93s10.69-3.54,10.69-12.93V511c0-9.37-4.12-12.93-10.69-12.93S410.4,501.64,410.4,511Z"/><path class="cls-43" d="M504.22,589.4,520,482.34h18.94L518.66,613.59H487.91L467.65,482.34h20.82Z"/><path class="cls-43" d="M554.16,482.34h20.63V613.59H554.16Z"/><path class="cls-43" d="M621,479.33c20.07,0,30.38,12,30.38,33v4.12h-19.5V511c0-9.37-3.75-12.93-10.32-12.93s-10.31,3.56-10.31,12.93c0,27,40.31,32.07,40.31,69.57,0,21-10.49,33-30.75,33s-30.75-12-30.75-33v-8.06h19.5v9.37c0,9.39,4.13,12.75,10.7,12.75s10.68-3.36,10.68-12.75c0-27-40.31-32.06-40.31-69.56C590.61,491.33,600.92,479.33,621,479.33Z"/><path class="cls-43" d="M666.79,482.34h20.63V613.59H666.79Z"/><path class="cls-43" d="M702.67,512.33c0-21,11.07-33,31.31-33s31.32,12,31.32,33v68.25c0,21-11.06,33-31.32,33s-31.31-12-31.31-33Zm20.62,69.56c0,9.39,4.13,12.93,10.69,12.93s10.69-3.54,10.69-12.93V511c0-9.37-4.12-12.93-10.69-12.93s-10.69,3.56-10.69,12.93Z"/><path class="cls-43" d="M799.12,519.34V614.4H780.55V483.15h25.88l21.19,78.58V483.15H846V614.4H824.81Z"/><rect class="cls-44" x="234.01" y="326.25" width="111.8" height="42.7" transform="translate(-0.93 0.77) rotate(-0.15)"/><rect class="cls-44" x="353.8" y="312.65" width="186.33" height="69.1" transform="translate(-0.92 1.19) rotate(-0.15)"/><rect class="cls-44" x="547.77" y="291.7" width="298.13" height="111.8" transform="translate(-0.92 1.86) rotate(-0.15)"/><path class="cls-43" d="M244.15,701.33v37.42h49.26v8.71H244.15v40.42H234.08V692.62H299.4v8.71Z"/><path class="cls-43" d="M320.74,692.62h10.07v95.26H320.74Z"/><path class="cls-43" d="M435.49,692.62v95.26h-8.3L366,710.58v77.3H355.88V692.62h8.3l61.38,77.29V692.62Z"/><path class="cls-43" d="M531.81,762.43H478.74l-11.43,25.45H456.84l43.54-95.26h9.93l43.55,95.26H543.25Zm-3.67-8.16L505.28,703.1l-22.86,51.17Z"/><path class="cls-43" d="M651.09,692.62v95.26h-8.3l-61.23-77.3v77.3H571.48V692.62h8.31l61.37,77.29V692.62Z"/><path class="cls-43" d="M696.73,782.44a45.85,45.85,0,0,1-17.83-17.36,51,51,0,0,1,0-49.67,45.72,45.72,0,0,1,17.9-17.34,52.3,52.3,0,0,1,25.58-6.26,53,53,0,0,1,19.6,3.53,40.71,40.71,0,0,1,15.24,10.35l-6.4,6.39q-11.16-11.3-28.17-11.29A41.38,41.38,0,0,0,702.1,706a37.75,37.75,0,0,0-14.49,14.15,41.32,41.32,0,0,0,0,40.28,37.68,37.68,0,0,0,14.49,14.15,41.38,41.38,0,0,0,20.55,5.17q17.16,0,28.17-11.43l6.4,6.4a41.3,41.3,0,0,1-15.31,10.41,52.77,52.77,0,0,1-19.67,3.61A52,52,0,0,1,696.73,782.44Z"/><path class="cls-43" d="M845.92,779.17v8.71H778.57V692.62h65.31v8.71H788.64v33.88H837.9v8.58H788.64v35.38Z"/></g></svg>